<svg xmlns="http://www.w3.org/2000/svg" width="47.531" height="67.04" viewBox="0 0 47.531 67.04">
  <g id="home-heart-icon" transform="translate(-11 -2.76)">
    <path id="Path_10" data-name="Path 10" d="M57.9,35.961,51.74,32.88V21.132A1.131,1.131,0,0,0,50.608,20H41.555a1.131,1.131,0,0,0-1.132,1.132v6.09l-5.152-2.576a1.136,1.136,0,0,0-1.012,0L11.626,35.962a1.132,1.132,0,0,0-.506,1.519l2.263,4.527a1.132,1.132,0,0,0,1.519.506l2.888-1.445V66.4a1.132,1.132,0,0,0,1.132,1.132H50.608A1.131,1.131,0,0,0,51.74,66.4V41.068l2.889,1.444a1.13,1.13,0,0,0,1.519-.506l2.263-4.527A1.133,1.133,0,0,0,57.9,35.961Zm-8.428-13.7v2.263h-6.79V22.263Zm-6.79,4.527h6.79v4.958l-6.79-3.4Zm6.79,38.477H20.053V39.937l14.712-7.356,14.712,7.356Zm5.152-25.285L35.272,30.3a1.131,1.131,0,0,0-1.013,0L14.9,39.982l-1.25-2.5L34.765,26.922,55.88,37.48Z" transform="translate(0 2.27)"/>
    <path id="Path_11" data-name="Path 11" d="M23.549,40.549a7.541,7.541,0,0,0,0,10.654L32.6,60.256a1.131,1.131,0,0,0,1.6,0L43.256,51.2A7.534,7.534,0,0,0,33.4,39.853,7.549,7.549,0,0,0,23.549,40.549Zm18.107,1.6a5.278,5.278,0,0,1,0,7.453L33.4,57.856,25.15,49.6A5.27,5.27,0,0,1,32.6,42.149a1.13,1.13,0,0,0,1.6,0A5.278,5.278,0,0,1,41.656,42.149Z" transform="translate(1.362 4.686)"/>
    <path id="Path_12" data-name="Path 12" d="M42.285,19.675a1.131,1.131,0,0,0,1.6,0l6.79-6.79a5.933,5.933,0,0,0-7.59-9.061,5.933,5.933,0,0,0-7.59,9.061ZM37.1,6.1a3.675,3.675,0,0,1,5.19,0,1.13,1.13,0,0,0,1.6,0,3.67,3.67,0,1,1,5.19,5.19l-5.99,5.99-5.99-5.99a3.669,3.669,0,0,1,0-5.19Z" transform="translate(2.996)"/>
  </g>
</svg>
