<svg xmlns="http://www.w3.org/2000/svg" xmlns:xlink="http://www.w3.org/1999/xlink" width="562.075" height="439.784" viewBox="0 0 562.075 439.784">
  <defs>
    <linearGradient id="linear-gradient" x1="0.5" y1="1" x2="0.5" gradientUnits="objectBoundingBox">
      <stop offset="0" stop-color="gray" stop-opacity="0.251"/>
      <stop offset="0.54" stop-color="gray" stop-opacity="0.122"/>
      <stop offset="1" stop-color="gray" stop-opacity="0.102"/>
    </linearGradient>
  </defs>
  <g id="undraw_baby" transform="translate(0 0.013)">
    <path id="Path_106" data-name="Path 106" d="M275.209,45.144c15.264-13.616,39.231-16.373,61.081-15.326,68.571,3.411,130.468,36.511,184.011,73.959,19.385,13.553,38.468,28.163,51.048,46.832,25.631,38,18.015,90.645-17.6,121.952-12.12,10.65-26.808,18.831-41.889,26.055-26.813,12.868-55.745,23.2-86.178,26.154-21.7,2.092-43.667.392-65.244-2.532C300.165,314.061,241,295.983,191.406,265.059c-21.75-13.564-42.26-30.428-51.215-52.371s-3.227-49.751,18.983-62.739c9.185-5.372,20.17-7.8,30.919-10.08,15.829-3.353,31.908-6.659,46.188-13.475,14.756-7.041,32.222-20.657,29.293-36.245C262.446,73.427,259.935,58.744,275.209,45.144Z" transform="translate(-97.742 -29.63)" fill="#68a5de" opacity="0.1"/>
    <ellipse id="Ellipse_10" data-name="Ellipse 10" cx="69.643" cy="21.802" rx="69.643" ry="21.802" transform="translate(171.462 390.853)" fill="#68a5de" opacity="0.1"/>
    <path id="Path_107" data-name="Path 107" d="M733.95,359.754l2.527,134.286,5.372.633L739.824,359.22Z" transform="translate(-350.032 -171.324)" fill="#f5c5cc"/>
    <path id="Path_108" data-name="Path 108" d="M739.87,355.45l2.882,139.763,1.92-2.338-2.024-135.453Z" transform="translate(-352.856 -169.526)" fill="none"/>
    <path id="Path_109" data-name="Path 109" d="M709.12,354.924l2.526,134.286,5.372.633L714.994,354.39Z" transform="translate(-338.191 -169.02)" fill="#f5c5cc"/>
    <path id="Path_110" data-name="Path 110" d="M715.04,350.62l2.877,139.763,1.925-2.338-2.024-135.453Z" transform="translate(-341.014 -167.222)" fill="none"/>
    <path id="Path_111" data-name="Path 111" d="M715.19,339.367l.261,146.464,5.492-.523L718.852,336.49Z" transform="translate(-341.086 -160.484)" fill="#cc929b"/>
    <path id="Path_112" data-name="Path 112" d="M425.56,294.792l2.317,121.727,5.372.565L431.439,294.3Z" transform="translate(-202.956 -140.363)" fill="#f5c5cc"/>
    <path id="Path_113" data-name="Path 113" d="M431.49,290.89l2.657,126.691,1.93-2.124-1.81-122.784Z" transform="translate(-205.784 -138.736)" fill="#cc929b"/>
    <path id="Path_114" data-name="Path 114" d="M447.41,300.682,449.727,422.4l5.372.565-1.81-122.778Z" transform="translate(-213.377 -143.172)" fill="#f5c5cc"/>
    <path id="Path_115" data-name="Path 115" d="M453.34,296.77,456,423.461l1.925-2.124-1.81-122.778Z" transform="translate(-216.205 -141.54)" fill="#cc929b"/>
    <path id="Path_116" data-name="Path 116" d="M468.77,307.066l2.317,121.727,5.372.565-1.81-122.778Z" transform="translate(-223.564 -146.219)" fill="#f5c5cc"/>
    <path id="Path_117" data-name="Path 117" d="M474.7,303.17l2.662,126.686,1.925-2.124-1.81-122.778Z" transform="translate(-226.392 -144.593)" fill="#cc929b"/>
    <path id="Path_118" data-name="Path 118" d="M489.55,308.352l2.385,126,5.372.586L495.424,307.85Z" transform="translate(-233.474 -146.825)" fill="#f5c5cc"/>
    <path id="Path_119" data-name="Path 119" d="M495.47,304.31l2.736,131.137,1.925-2.2-1.883-127.088Z" transform="translate(-236.298 -145.136)" fill="#cc929b"/>
    <path id="Path_120" data-name="Path 120" d="M512.08,310.227l2.39,126,5.372.586L517.959,309.72Z" transform="translate(-244.219 -147.717)" fill="#f5c5cc"/>
    <path id="Path_121" data-name="Path 121" d="M518.01,306.19l2.736,131.132,1.925-2.2-1.883-127.088Z" transform="translate(-247.047 -146.033)" fill="#cc929b"/>
    <path id="Path_122" data-name="Path 122" d="M534.22,318.1l2.385,126,5.372.586L540.1,317.6Z" transform="translate(-254.778 -151.475)" fill="#f5c5cc"/>
    <path id="Path_123" data-name="Path 123" d="M540.14,314.06,542.876,445.2,544.8,443l-1.878-127.088Z" transform="translate(-257.601 -149.786)" fill="#cc929b"/>
    <path id="Path_124" data-name="Path 124" d="M559.56,323.288,562.008,452.8l5.372.6L565.439,322.77Z" transform="translate(-266.863 -153.94)" fill="#f5c5cc"/>
    <path id="Path_125" data-name="Path 125" d="M565.48,319.14l2.8,134.793,1.925-2.26-1.941-130.635Z" transform="translate(-269.686 -152.209)" fill="#cc929b"/>
    <path id="Path_126" data-name="Path 126" d="M581.61,325.918l2.443,129.516,5.377.6L587.484,325.4Z" transform="translate(-277.379 -155.195)" fill="#f5c5cc"/>
    <path id="Path_127" data-name="Path 127" d="M587.53,321.76l2.8,134.8,1.925-2.26-1.946-130.635Z" transform="translate(-280.202 -153.459)" fill="#cc929b"/>
    <path id="Path_128" data-name="Path 128" d="M604.97,332.523l2.448,129.516,5.372.607L610.849,332.01Z" transform="translate(-288.52 -158.347)" fill="#f5c5cc"/>
    <path id="Path_129" data-name="Path 129" d="M610.9,328.37l2.793,134.8,1.925-2.26-1.941-130.635Z" transform="translate(-291.348 -156.611)" fill="#cc929b"/>
    <path id="Path_130" data-name="Path 130" d="M405.312,286.446l-.262-7.71,2.72-1.486,195.079,40.011.361,9.787Z" transform="translate(-193.175 -132.231)" fill="#f5c5cc"/>
    <path id="Path_131" data-name="Path 131" d="M408.137,277.25l195.8,39.979-.2,3.667L405.82,278.511" transform="translate(-193.542 -132.231)" fill="#cc929b"/>
    <path id="Path_132" data-name="Path 132" d="M415.675,470.46l-5.492,2h-5.231l-.262-206.378,2.877-4,2.778-.816,3.5-.528Z" transform="translate(-193.003 -124.357)" fill="#f5c5cc"/>
    <path id="Path_133" data-name="Path 133" d="M420.372,470.46l-5.492,2-.34-205.97.5-5.22,3.5-.528Z" transform="translate(-197.701 -124.357)" fill="#cc929b"/>
    <path id="Path_134" data-name="Path 134" d="M630.35,339.848l2.448,129.51,5.372.607L636.229,339.33Z" transform="translate(-300.624 -161.838)" fill="#f5c5cc"/>
    <path id="Path_135" data-name="Path 135" d="M636.27,335.69l2.8,134.8,1.925-2.26-1.941-130.635Z" transform="translate(-303.447 -160.102)" fill="#cc929b"/>
    <path id="Path_136" data-name="Path 136" d="M655.92,343.753l2.5,132.283,5.372.617L661.794,343.23Z" transform="translate(-312.819 -163.698)" fill="#f5c5cc"/>
    <path id="Path_137" data-name="Path 137" d="M661.84,339.51l2.846,137.676,1.925-2.307-1.993-133.423Z" transform="translate(-315.642 -161.924)" fill="none"/>
    <path id="Path_138" data-name="Path 138" d="M682.25,348.374l2.527,134.286,5.372.633L688.129,347.84Z" transform="translate(-325.376 -165.897)" fill="#f5c5cc"/>
    <path id="Path_139" data-name="Path 139" d="M688.17,344.07l2.882,139.768,1.92-2.343-2.019-135.453Z" transform="translate(-328.199 -164.099)" fill="#cc929b"/>
    <path id="Path_140" data-name="Path 140" d="M274.944,450.307l-5.492.523L269.2,306.36l-.005-1.993,3.662-2.877.058,4.007Z" transform="translate(-128.381 -143.792)" fill="#f5c5cc"/>
    <path id="Path_141" data-name="Path 141" d="M311.944,434.807l-5.492.523L306.2,293.219l-.005-4.352,3.662-2.877.084,5.838Z" transform="translate(-146.027 -136.399)" fill="#f5c5cc"/>
    <path id="Path_142" data-name="Path 142" d="M372.944,409.807l-5.492.523L367.2,270.013l-.01-6.146,3.662-2.877.115,8.15Z" transform="translate(-175.119 -124.476)" fill="#f5c5cc"/>
    <path id="Path_143" data-name="Path 143" d="M399.444,399.807l-5.492.523-.246-136.891-.016-9.572,3.662-2.877.188,13.3Z" transform="translate(-187.757 -119.707)" fill="#f5c5cc"/>
    <path id="Path_144" data-name="Path 144" d="M293.444,447.307l-5.492.523-.262-145.417v-1.046l3.662-2.877.037,2.757Z" transform="translate(-137.204 -142.361)" fill="#f5c5cc"/>
    <path id="Path_145" data-name="Path 145" d="M347.444,422.307l-5.492.523L341.7,280.154l-.005-3.787,3.662-2.877.073,5.367Z" transform="translate(-162.957 -130.438)" fill="#f5c5cc"/>
    <path id="Path_146" data-name="Path 146" d="M329.944,427.307l-5.492.523L324.2,286.017l-.01-4.65,3.662-2.877.084,6.057Z" transform="translate(-154.611 -132.823)" fill="#f5c5cc"/>
    <path id="Path_147" data-name="Path 147" d="M322.792,569.48l-1.308,2.746a22.912,22.912,0,0,0-3.008,12.946c.392,7.846-5.477,28.639-5.477,28.639s5.362,2.485,9.415,2.223,12.816,4.054,12.816,4.054l18.161,5.634,36.747,8.631s21.577,12.031,27.462,12.031,29.293,7.977,29.293,7.977,31.647,6.931,34.131,9.546,12.962,6.136,14.008,6.277,17,1.7,17,1.7,18.569,4.315,21.185-.262a23.579,23.579,0,0,0,3.008-8.369s8.239,1.831,10.462-.915,2.354-8.631,4.969-8.369S565,657.5,566.173,656.322s7.454-15.039,11.9-12.946,12.162,5.362,12.162,5.362l-4.446-45.247-1.962-12.423S512.557,620.1,510.072,620.1,322.792,569.48,322.792,569.48Z" transform="translate(-182.088 -287.099)" fill="#68a5de"/>
    <path id="Path_148" data-name="Path 148" d="M585.07,453.559l-.392,63.816-74.032,28.388L323.12,495.94s-12.685-17.916-.915-34.654c0,0-15.169-20.923,3.662-34.524l.466-.11,71.2-17.152,31.662,5.785,139.9,25.589S582.831,445.975,585.07,453.559Z" transform="translate(-183.723 -210.802)" fill="#68a5de"/>
    <path id="Path_149" data-name="Path 149" d="M435.719,421.39c-3.531,1.831-29.162,8.5-34.262,12.554s-40.408,7.2-40.408,7.2l-3.923.785s.262-2.615-15.3-10.2a19.84,19.84,0,0,1-6.465-5.079l71.2-17.152,31.662,5.785C438.261,417.791,437.832,420.291,435.719,421.39Z" transform="translate(-192.752 -210.802)" opacity="0.1"/>
    <path id="Path_150" data-name="Path 150" d="M321.445,384s-1.308,25.37,14.254,32.954,15.316,10.19,15.316,10.19l3.923-.785s-13.6-15.169-12.685-17.785-12.162-15.823-14.008-16.346S321.445,384,321.445,384Z" transform="translate(-186.103 -198.641)" fill="#68a5de"/>
    <path id="Path_151" data-name="Path 151" d="M321.975,384.73s-1.308,25.37,14.254,32.954,15.3,10.2,15.3,10.2l3.923-.785s-13.6-15.169-12.685-17.785-12.177-15.823-13.993-16.346S321.975,384.73,321.975,384.73Z" transform="translate(-186.355 -198.989)" opacity="0.1"/>
    <path id="Path_152" data-name="Path 152" d="M329,405.23s12.554,18.962,14.777,19.616S331.992,405.492,329,405.23Z" transform="translate(-189.718 -208.766)" opacity="0.1"/>
    <path id="Path_153" data-name="Path 153" d="M318,352s8.108-6.539,9.154-7.846,12.554-1.831,12.946-1.831,9.154-5.362,18.962-7.062,13.731-2.485,13.731-2.485,14.385-6.015,15.169-7.323,7.454-2.746,15.693,3.662,26.416,35.177,26.547,38.316,1.308,8.892-2.223,10.723-29.162,8.5-34.262,12.554-40.424,7.2-40.424,7.2L339.97,383.385l-7.062-11.377-11.769-12.423Z" transform="translate(-184.472 -170.182)" fill="#68a5de"/>
    <path id="Path_154" data-name="Path 154" d="M357.108,593.15s-4.88,1.046-2.092,3.834S357.108,593.15,357.108,593.15Z" transform="translate(-201.715 -298.388)" opacity="0.1"/>
    <path id="Path_155" data-name="Path 155" d="M388.529,603.82s-5.231,6.277-4.185,8.019S388.529,603.82,388.529,603.82Z" transform="translate(-216.047 -303.477)" opacity="0.1"/>
    <path id="Path_156" data-name="Path 156" d="M447.2,619.15s-5.231,6.277-4.185,8.019S447.2,619.15,447.2,619.15Z" transform="translate(-244.028 -310.788)" opacity="0.1"/>
    <path id="Path_157" data-name="Path 157" d="M518.529,639.15s-5.231,6.277-4.185,8.019S518.529,639.15,518.529,639.15Z" transform="translate(-278.046 -320.326)" opacity="0.1"/>
    <path id="Path_158" data-name="Path 158" d="M614.529,663.15s-5.231,6.277-4.185,8.019S614.529,663.15,614.529,663.15Z" transform="translate(-323.83 -331.772)" opacity="0.1"/>
    <path id="Path_159" data-name="Path 159" d="M417.2,607.15s-5.231,6.277-4.185,8.019S417.2,607.15,417.2,607.15Z" transform="translate(-229.72 -305.065)" opacity="0.1"/>
    <path id="Path_160" data-name="Path 160" d="M556.529,649.15s-5.231,6.277-4.185,8.019S556.529,649.15,556.529,649.15Z" transform="translate(-296.169 -325.095)" opacity="0.1"/>
    <path id="Path_161" data-name="Path 161" d="M585.859,658.48s-5.231,6.277-4.185,8.024S585.859,658.48,585.859,658.48Z" transform="translate(-310.157 -329.545)" opacity="0.1"/>
    <path id="Path_162" data-name="Path 162" d="M473.2,627.15s-5.231,6.277-4.185,8.019S473.2,627.15,473.2,627.15Z" transform="translate(-256.427 -314.603)" opacity="0.1"/>
    <path id="Path_163" data-name="Path 163" d="M729.14,699.82l5.534,25.584S734.716,707.488,729.14,699.82Z" transform="translate(-380.552 -349.26)" opacity="0.1"/>
    <path id="Path_164" data-name="Path 164" d="M761.8,707.15l3.881,12.476S765.289,714.824,761.8,707.15Z" transform="translate(-396.128 -352.756)" opacity="0.1"/>
    <path id="Path_165" data-name="Path 165" d="M787.6,705.985s-8.28-30.161-10.028-32.253S782.617,704.07,787.6,705.985Z" transform="translate(-403.517 -336.772)" opacity="0.1"/>
    <path id="Path_166" data-name="Path 166" d="M809.583,689.778s-9.761-17.084-5.927-20.222S809.583,689.778,809.583,689.778Z" transform="translate(-415.664 -334.689)" opacity="0.1"/>
    <path id="Path_167" data-name="Path 167" d="M327.47,508.432,517,550.98l72.886-21.274L516.3,548.888S333.224,506.69,327.47,508.432Z" transform="translate(-188.989 -257.959)" opacity="0.1"/>
    <path id="Path_168" data-name="Path 168" d="M275.69,390.132l.262,121.748,5.362.654.262-122.794Z" transform="translate(-131.481 -185.879)" fill="#f5c5cc"/>
    <path id="Path_169" data-name="Path 169" d="M281.69,386.24l.523,126.717,1.962-2.092.262-122.794Z" transform="translate(-134.342 -184.21)" fill="#cc929b"/>
    <path id="Path_170" data-name="Path 170" d="M297.44,396.382,297.7,518.13l5.362.654.262-122.794Z" transform="translate(-141.854 -188.86)" fill="#f5c5cc"/>
    <path id="Path_171" data-name="Path 171" d="M303.44,392.49l.523,126.717,1.962-2.092.262-122.794Z" transform="translate(-144.715 -187.191)" fill="#cc929b"/>
    <path id="Path_172" data-name="Path 172" d="M318.69,403.132l.262,121.748,5.362.654.262-122.794Z" transform="translate(-151.988 -192.079)" fill="#f5c5cc"/>
    <path id="Path_173" data-name="Path 173" d="M324.69,399.24l.523,126.717,1.962-2.092.262-122.794Z" transform="translate(-154.85 -190.41)" fill="#cc929b"/>
    <path id="Path_174" data-name="Path 174" d="M339.44,404.768l.262,126.021,5.362.675.262-127.1Z" transform="translate(-161.884 -192.852)" fill="#f5c5cc"/>
    <path id="Path_175" data-name="Path 175" d="M345.44,400.74l.523,131.163,1.962-2.166.262-127.1Z" transform="translate(-164.746 -191.125)" fill="#cc929b"/>
    <path id="Path_176" data-name="Path 176" d="M361.94,407.018l.262,126.021,5.362.675.262-127.1Z" transform="translate(-172.615 -193.925)" fill="#f5c5cc"/>
    <path id="Path_177" data-name="Path 177" d="M367.94,402.99l.523,131.163,1.962-2.166.262-127.1Z" transform="translate(-175.476 -192.199)" fill="#cc929b"/>
    <path id="Path_178" data-name="Path 178" d="M383.94,415.268l.262,126.021,5.362.675.262-127.1Z" transform="translate(-183.107 -197.86)" fill="#f5c5cc"/>
    <path id="Path_179" data-name="Path 179" d="M389.94,411.24l.523,131.163,1.962-2.166.262-127.1Z" transform="translate(-185.969 -196.133)" fill="#cc929b"/>
    <path id="Path_180" data-name="Path 180" d="M409.19,420.878l.262,129.536,5.362.7.262-130.651Z" transform="translate(-195.149 -200.53)" fill="none"/>
    <path id="Path_181" data-name="Path 181" d="M415.19,416.74l.523,134.825,1.962-2.228.262-130.651Z" transform="translate(-198.011 -198.756)" fill="#cc929b"/>
    <path id="Path_182" data-name="Path 182" d="M431.19,423.878l.262,129.536,5.362.7.262-130.651Z" transform="translate(-205.641 -201.961)" fill="#f5c5cc"/>
    <path id="Path_183" data-name="Path 183" d="M437.19,419.74l.523,134.825,1.962-2.228.262-130.651Z" transform="translate(-208.503 -200.187)" fill="#cc929b"/>
    <path id="Path_184" data-name="Path 184" d="M454.44,430.878l.262,129.537,5.362.7.262-130.651Z" transform="translate(-216.73 -205.299)" fill="#f5c5cc"/>
    <path id="Path_185" data-name="Path 185" d="M460.44,426.74l.523,134.825,1.962-2.228.262-130.651Z" transform="translate(-219.591 -203.525)" fill="#cc929b"/>
    <path id="Path_186" data-name="Path 186" d="M479.69,438.628l.262,129.537,5.362.7.262-130.651Z" transform="translate(-228.772 -208.995)" fill="#f5c5cc"/>
    <path id="Path_187" data-name="Path 187" d="M485.69,434.49l.523,134.825,1.962-2.228.262-130.651Z" transform="translate(-231.633 -207.221)" fill="#cc929b"/>
    <path id="Path_188" data-name="Path 188" d="M505.19,442.969l.262,132.3,5.362.711.262-133.439Z" transform="translate(-240.933 -211.061)" fill="#f5c5cc"/>
    <path id="Path_189" data-name="Path 189" d="M511.19,438.74l.523,137.7,1.962-2.275.262-133.439Z" transform="translate(-243.795 -209.248)" fill="#cc929b"/>
    <path id="Path_190" data-name="Path 190" d="M531.44,448.034l.262,134.312,5.362.722.262-135.468Z" transform="translate(-253.452 -213.474)" fill="#cc929b"/>
    <path id="Path_191" data-name="Path 191" d="M537.44,443.74l.523,139.794,1.962-2.307.262-135.468Z" transform="translate(-256.314 -211.633)" fill="none"/>
    <path id="Path_192" data-name="Path 192" d="M558.19,455.034l.262,134.312,5.362.722.262-135.468Z" transform="translate(-266.21 -216.812)" fill="#f5c5cc"/>
    <path id="Path_193" data-name="Path 193" d="M564.19,450.74l.523,139.794,1.962-2.307.262-135.468Z" transform="translate(-269.071 -214.971)" fill="#cc929b"/>
    <path id="Path_194" data-name="Path 194" d="M582.94,460.284,583.2,594.6l5.362.722.262-135.468Z" transform="translate(-278.013 -219.316)" fill="#cc929b"/>
    <path id="Path_195" data-name="Path 195" d="M588.94,455.99l.523,139.794,1.962-2.307.262-135.468Z" transform="translate(-280.875 -217.475)" fill="none"/>
    <path id="Path_196" data-name="Path 196" d="M252.175,489.647l-5.492,2.092h-5.231l-.262-191.972,2.877-4.185,2.778-.853,4.023-1.24Z" transform="translate(-115.027 -139.976)" fill="#f5c5cc"/>
    <path id="Path_197" data-name="Path 197" d="M256.872,489.647l-5.492,2.092-.34-191.548.5-5.461,4.023-1.24Z" transform="translate(-119.725 -139.976)" fill="#cc929b"/>
    <circle id="Ellipse_11" data-name="Ellipse 11" cx="6.277" cy="6.277" r="6.277" transform="translate(125.901 345.224)" fill="#40414d"/>
    <path id="Path_198" data-name="Path 198" d="M789.175,532.864l-5.492,2h-5.231l-.262-211.085,2.877.711,2.778-.816,4.022-1.182Z" transform="translate(-371.131 -153.807)" fill="#f5c5cc"/>
    <path id="Path_199" data-name="Path 199" d="M793.872,532.864l-5.492,2-.34-205.97.5-5.22,4.022-1.182Z" transform="translate(-375.829 -153.807)" fill="#cc929b"/>
    <path id="Path_200" data-name="Path 200" d="M648.444,513.307l-5.492.523L642.7,372.812l-.011-5.445,3.662-2.877.1,7.517Z" transform="translate(-306.509 -173.837)" fill="#f5c5cc"/>
    <path id="Path_201" data-name="Path 201" d="M685.444,497.807l-5.492.523-.246-138.413-.016-8.05,3.662-2.877.136,9.552Z" transform="translate(-324.155 -166.445)" fill="#f5c5cc"/>
    <path id="Path_202" data-name="Path 202" d="M746.444,472.807l-5.492.523-.246-138.089-.016-8.375,3.661-2.877.136,9.682Z" transform="translate(-353.247 -154.522)" fill="#f5c5cc"/>
    <path id="Path_203" data-name="Path 203" d="M767.19,316.867l.262,146.464,5.492-.523L770.852,313.99Z" transform="translate(-365.885 -149.753)" fill="#f5c5cc"/>
    <path id="Path_204" data-name="Path 204" d="M666.944,510.307l-5.492.523L661.2,369.012l-.01-4.645,3.662-2.877.089,6.387Z" transform="translate(-315.332 -172.407)" fill="#f5c5cc"/>
    <path id="Path_205" data-name="Path 205" d="M703.444,490.307l-5.492.523-.246-138.047-.016-8.416,3.662-2.877.136,9.771Z" transform="translate(-332.74 -162.868)" fill="#f5c5cc"/>
    <path id="Path_206" data-name="Path 206" d="M723.774,483.637l-5.492.523-.246-138.047v-.821l-.016-7.6,3.662-2.877.125,8.924.01.847Z" transform="translate(-342.435 -159.687)" fill="#f5c5cc"/>
    <path id="Path_207" data-name="Path 207" d="M632.69,617.749l75.847-32.259,5.231,1.219.173,12.031L634.087,629.6Z" transform="translate(-301.74 -279.236)" fill="#f5c5cc"/>
    <path id="Path_208" data-name="Path 208" d="M708.537,585.49,632.69,617.749l80.8-31.108" transform="translate(-301.74 -279.236)" fill="#cc929b"/>
    <path id="Path_209" data-name="Path 209" d="M256.386,614.49l191.276,58.062-.35,9.416L255.69,622.859Z" transform="translate(-121.943 -293.066)" fill="#f5c5cc"/>
    <path id="Path_210" data-name="Path 210" d="M691.4,617.338l-5.492,2.092h-5.231l-.261-214.987h0V403.4l.408-.6,2.469-3.588,2.778-.853,4.023-1.24.042,7.323Z" transform="translate(-357.316 -204.898)" fill="#f5c5cc"/>
    <path id="Path_211" data-name="Path 211" d="M633.372,587.708,627.88,589.8l-.34-215.61.5-5.461,4.023-1.24Z" transform="translate(-299.284 -175.268)" fill="#cc929b"/>
    <path id="Path_212" data-name="Path 212" d="M690.1,397.12l.042,7.323a44.6,44.6,0,0,1-4.566.429c-3.766.146-5.152-.424-5.152-.424h0c0-.073.146-.659.408-1.637l2.469-3.588,2.778-.853Z" transform="translate(-357.316 -204.898)" opacity="0.1"/>
    <path id="Path_213" data-name="Path 213" d="M709.091,394.12l.1,7.517q-2.024.471-3.756.806V397Z" transform="translate(-369.249 -203.467)" opacity="0.1"/>
    <path id="Path_214" data-name="Path 214" d="M727.591,391.12l.089,6.387c-1.3.413-2.553.79-3.74,1.135V394Z" transform="translate(-378.072 -202.037)" opacity="0.1"/>
    <path id="Path_215" data-name="Path 215" d="M746.1,378.62l.136,9.552q-1.962.727-3.782,1.376V381.5Z" transform="translate(-386.899 -196.075)" opacity="0.1"/>
    <path id="Path_216" data-name="Path 216" d="M764.1,371.12l.136,9.771-3.013,1.214-.769.309V374Z" transform="translate(-395.484 -192.498)" opacity="0.1"/>
    <path id="Path_217" data-name="Path 217" d="M807.232,363.307l-3.782,1.569v-8.369l3.662-2.877Z" transform="translate(-415.991 -184.157)" opacity="0.1"/>
    <path id="Path_218" data-name="Path 218" d="M784.561,373.393l-3.771,1.569v-7.6l3.662-2.877Z" transform="translate(-405.184 -189.336)" opacity="0.1"/>
    <path id="Path_219" data-name="Path 219" d="M777.19,341.476s-9.677,0-12.292-.785-8.108,2.354-41.847,15.954c-20.4,8.228-31.725,10.137-37.479,10.362-3.766.146-5.152-.424-5.152-.424s6.889-31.6,28.827-37.51a65.037,65.037,0,0,0,7.2-2.422l.424-.162a42.883,42.883,0,0,1,5.654-1.752c7.041-1.616,12.068-4.708,24.794-4.8a34.811,34.811,0,0,1,21.854,7.25C773.539,330.617,777.3,335.361,777.19,341.476Z" transform="translate(-357.316 -168.085)" fill="#cc929b"/>
    <path id="Path_220" data-name="Path 220" d="M717.82,332.12c-27.148,11.707-31.291,33.587-32.248,40.7-3.766.146-5.152-.424-5.152-.424s6.889-31.6,28.827-37.51a65.049,65.049,0,0,0,7.2-2.422l.424-.162C717.188,332.256,717.5,332.193,717.82,332.12Z" transform="translate(-357.316 -173.898)" fill="#f5c5cc"/>
    <path id="Path_221" data-name="Path 221" d="M335.586,331.12l.058,4.007c-1.323.33-2.558.617-3.714.863V334Z" transform="translate(-191.116 -173.422)" opacity="0.1"/>
    <path id="Path_222" data-name="Path 222" d="M354.082,328.12l.037,2.757q-1.93.638-3.7,1.166V331Z" transform="translate(-199.934 -171.991)" opacity="0.1"/>
    <path id="Path_223" data-name="Path 223" d="M372.586,315.62l.084,5.838q-1.93.738-3.74,1.391V318.5Z" transform="translate(-208.762 -166.029)" opacity="0.1"/>
    <path id="Path_224" data-name="Path 224" d="M390.591,308.12l.084,6.057q-1.8.7-3.735,1.47V311Z" transform="translate(-217.351 -162.452)" opacity="0.1"/>
    <path id="Path_225" data-name="Path 225" d="M408.086,303.12l.073,5.367q-1.778.6-3.73,1.3V306Z" transform="translate(-225.692 -160.068)" opacity="0.1"/>
    <path id="Path_226" data-name="Path 226" d="M433.591,290.62l.115,8.15c-1.156.241-2.406.523-3.766.874V293.5Z" transform="translate(-237.858 -154.106)" opacity="0.1"/>
    <path id="Path_227" data-name="Path 227" d="M460.284,293.877a13.792,13.792,0,0,0-3.834-.847v-9.572l3.662-2.877Z" transform="translate(-250.501 -149.318)" opacity="0.1"/>
    <path id="Path_228" data-name="Path 228" d="M400.691,287.734s-9.677,0-12.292-.785-8.108-4.969-41.847,8.631c-20.4,8.228-31.725,10.137-37.479,10.362-3.766.146-5.152-.424-5.152-.424s5.194-27.462,28.1-32.1a33.667,33.667,0,0,0,3.782-.968c1.407-.46,3.625-1.119,6.607-1.8a138.247,138.247,0,0,1,37.38-2.887,23.183,23.183,0,0,1,15.583,6.831,17.947,17.947,0,0,1,5.32,13.14Z" transform="translate(-177.757 -143.113)" fill="#cc929b"/>
    <path id="Path_229" data-name="Path 229" d="M342.409,273.46c-27.148,11.707-32.379,28.179-33.336,35.292-3.766.146-5.152-.424-5.152-.424s5.194-27.462,28.1-32.1a33.672,33.672,0,0,0,3.782-.968C337.209,274.789,339.427,274.145,342.409,273.46Z" transform="translate(-177.757 -145.923)" fill="#f5c5cc"/>
    <path id="Path_230" data-name="Path 230" d="M255.571,381.394l-.131-7.715,2.746-1.438,187.787,42.108-.523,9.808Z" transform="translate(-121.823 -177.533)" fill="#f5c5cc"/>
    <path id="Path_231" data-name="Path 231" d="M258.558,372.24l187.787,42.108-.262,3.662L256.22,373.464" transform="translate(-122.195 -177.533)" fill="#cc929b"/>
    <circle id="Ellipse_12" data-name="Ellipse 12" cx="6.277" cy="6.277" r="6.277" transform="translate(406.274 374.778)" fill="#40414d"/>
    <circle id="Ellipse_13" data-name="Ellipse 13" cx="6.277" cy="6.277" r="6.277" transform="translate(323.104 410.348)" fill="#40414d"/>
    <path id="Path_232" data-name="Path 232" d="M325,579.45s-5.581,6.277-7.323,11.858,2.092,26.5,2.092,26.5a38.524,38.524,0,0,0,4.185-11.163C325.345,600.028,325,579.45,325,579.45Z" transform="translate(-184.102 -291.854)" fill="#68a5de"/>
    <path id="Path_233" data-name="Path 233" d="M833.889,679.12s3.4,17.262,3.661,19.877-8.631-1.308-8.631-1.308Z" transform="translate(-428.138 -339.388)" fill="#68a5de"/>
    <path id="Path_234" data-name="Path 234" d="M519.578,168.44h-.089a1.047,1.047,0,0,0-.194-.492,2.567,2.567,0,0,0-.868-.659l-2.453-1.365,2.118.769a4.732,4.732,0,0,0-.33-.492l.246.136-.167-.235-.225-.078a6.2,6.2,0,0,0-4.839-1.846h.031c.235-.031.476-.052.711-.068a8.493,8.493,0,0,0-1.569.047h0a.732.732,0,0,0,.183.052,4.916,4.916,0,0,0-.523.052,1.569,1.569,0,0,1-.821,0,1.187,1.187,0,0,1-.633-.863,9.565,9.565,0,0,1,.272-3.264,3.5,3.5,0,0,0-.162-1.522V158.3a1.569,1.569,0,0,0-1.046-.962.953.953,0,0,0,0,.12l-.089-.037v2.814A11.221,11.221,0,0,1,506.993,158a.978.978,0,0,1-.215-.445c-.052-.476.555-.806.591-1.287a.717.717,0,0,0-.523-.68l.157-.058a1.177,1.177,0,0,0-.6-.1,10.03,10.03,0,0,0-1.318.4l.136.026a2.986,2.986,0,0,1-.309.084c-1.313.272-2.485-.774-3.432-1.721l-.2-.2c-.45-3.939-1.177-8.453-1.177-8.453a56.249,56.249,0,0,0-1.569-7.93c-.915-2.772-2.234-7.668-2.234-7.668s-3.013-5.947-3.662-6.209a7.982,7.982,0,0,1-.737-.418,11.711,11.711,0,0,1-.523-2.741c-.162-5.2,5.393-8.892,6.23-14.045.685-4.185-1.951-8.369-1.569-12.612a45.813,45.813,0,0,1,1.329-5.424,14.61,14.61,0,0,0,.152-5.372,8.857,8.857,0,0,0-.858-2.757,14.891,14.891,0,0,0,1.888-3.2c.847-2.417-.068-5.116-1.391-7.323-4.253-7.025-12.868-12.554-20.923-13.271-3.248-.3-6.507-.356-9.761-.408-3.735-.068-7.6-.11-11.048,1.334-6.863,2.872-10.111,10.545-14.28,16.739a47.455,47.455,0,0,1-12.983,12.957c-2.411,1.611-5.231,3.327-5.8,6.188a5.632,5.632,0,0,0-.1.832,7.654,7.654,0,0,1-.173-.764c-.57,2.987,1.538,5.754,2.615,8.6a15.171,15.171,0,0,1,.962,4.65,20.342,20.342,0,0,0,0-2.26c1.046,5.43-.874,11.257-2.061,16.807-.089.408-.157.816-.241,1.224a10.008,10.008,0,0,0-2.751,1.24,15.473,15.473,0,0,1-6.183,2.406A11.549,11.549,0,0,0,407,130.611c-.335.45-.659.758-.942.79-1.177.136-7.736,20.62-7.736,20.62s-1.365,8.437-1.365,10.415-2.359,16.257-2.359,16.257-.79,2.615-.523,3.7a16.532,16.532,0,0,1-.549,4.237.941.941,0,0,1-.366-.272c-.392-.79-7.611,0-5.377,5.288a10.368,10.368,0,0,0,2.526,3.756c-.994,2.49-1.857,4.807-1.742,5.1,0,0,0,1.888.167,4.221-1.533,1.046-2.788,1.988-2.788,1.988-.11,2.887,1.815,3.348,3.625,3.243.466,1.674,1.146,3,2.145,3.363,3.28,1.193,5.377.664,6.429,1.569s6.659,2.663,6.659,2.663a66.315,66.315,0,0,0,7.187.685l.962.481-.115-.523c.309-.058.167-.424-.22-1.046-.173-.8-.392-1.846-.638-3.039l1.439-.523.392.581c-.523,2.741-.858,4.567-.858,4.567s-2.615,9.384-1.444,10.838,0,3.306,0,3.306-.262,2.375.4,2.375,1.438,3.039.785,3.175-3.662,2.642-2.615,3.17,0,1.716,0,2.908c0,.868,1.6,2.155,2.469,2.788-.157.565-.319,1.167-.471,1.758a14.861,14.861,0,0,0-.69,4.043c.262,1.454-.654,5.55-.392,6.873s1.182,4.227.523,5.419.131,5.152.131,5.152l1.182,11.231s-.785,3.175,0,3.965,1.444,10.048,2.228,11.105,1.972,6.607,1.046,8.458,1.182,5.681,1.182,5.681-.131,4.493-.131,5.681a7.812,7.812,0,0,0,1.177,3.039s1.182,6.345,1.046,7.93a10.454,10.454,0,0,0,.785,3.834,42.567,42.567,0,0,1,.659,5.681,4.486,4.486,0,0,0,1.046,2.511s1.444,3.437,1.046,4.891a3.614,3.614,0,0,0,.915,2.908s-.131,3.17-.131,3.567,2.757,3.567,2.757,3.567-1.182,2.38-.523,3.306.523,4.227,1.569,5.288.785,5.414,2.092,6.209,2.49,1.454,2.751,3.17,1.313,4.232,2.5,4.629a2.276,2.276,0,0,1,.575.57l-.523,2.223-1.616,6.722s-1.569,9.776-1.444,11.231-1.569,2.908-1.569,2.908-1.444,8.458-1.705,9.515a9.455,9.455,0,0,0,.131,3.039s-.915,5.022-.262,5.288a29.19,29.19,0,0,1,3.41,3.039h.214l-.282.994-4.525,16.059s-4.185,7,5.513,10.572c.324.628.622.643.272.523.319.272,6.8,5.754,7.323,8.322s4.985,5.283,6.559,5.55,12.068,8.72,15.87.4-6.69-13.747-6.69-13.747l-7.987-5.142s-4.064-5.947-4.708-7-1.836-6.214-1.046-7c.4-.408,1.663-4.028,2.8-7.47.1-.33.214-.654.319-.978a9,9,0,0,0,4.75-.523l5.843-9.217,1.046-1.616.188.377s4.854.4,7.213.8a6.8,6.8,0,0,0,2.218-.277c.089.194.178.392.262.591a28.927,28.927,0,0,1,1.454,3.782c.392,1.716.79,7.794.79,7.794s-2.615,8.725-3.28,10.31.654,14.8,13.642,9.515c0,0,1.569-2.511,3.013-2.511s4.985-3.567,3.662-7.4-6.8-15.593-3.013-21.8c3.055-5,2.809-11.707-1.3-14.824-.173-.131-.356-.246-.523-.361a14.972,14.972,0,0,0,0-2c-.921-12.685-6.8-13.349-6.8-13.349s-3.411-.79-3.8-2.092c-.23-.764-3.186-4.708-5.634-7.914.084-.136.162-.272.241-.408,0-.047.052-.094.073-.141.115-.214.225-.434.33-.664,1.9-4.279,1.412-10.5,1.313-11.618-.131-1.454,0-3.306,0-5.419s2.092-5.288,1.836-6.476,2.5-6.078,2.5-7.271,1.93-8.333,1.93-8.333,3.8-8.2,4.593-10.577c.753-2.281,14.186-43.855,15.274-47.224a2.029,2.029,0,0,1,.073-.22s4.289-14.034,1.418-23.251a14.781,14.781,0,0,0-.675-1.784c.879-.424,1.486-.732,1.486-.732s-1.705-5.022-.921-6.873.262-5.419.262-5.419-3.138-1.852-3.275-2.642-1.444-1.852-1.046-2.908,2.615-.523,2.359-2.908-3.013-4.891-2.751-6.345,1.308-4.1,0-5.681a11.185,11.185,0,0,1-1.967-6.078c-.037-.523.078-2.066.262-4.1a46.056,46.056,0,0,0,4.326,2.38s5.639.8,5.906.267a12.433,12.433,0,0,1,1.705-1.852c7.083-1.716,3.934-14.646,3.934-14.646s-.1-.947-.272-2.506a1.375,1.375,0,0,0,.492-.235c.6-.439.748-1.276,1.114-1.935a9.613,9.613,0,0,1,1.454-1.705,16.68,16.68,0,0,0,2.809-4.99c.471-1.13.952-2.26,1.428-3.395a6.027,6.027,0,0,1,6.46-4.608,5.466,5.466,0,0,0-1.25-3.2,3.212,3.212,0,0,1,2.751.418,1.1,1.1,0,0,0,.058-.11h.031A.706.706,0,0,0,519.578,168.44ZM407.57,204.632c.031-.262.078-.523.136-.785.256-.241.565-.523.895-.785l1.831.178c-.45.366-.842.7-1.161.973A1.584,1.584,0,0,0,407.57,204.632Zm3.662-3.625a2.813,2.813,0,0,0,.758-.162h1.6c-.874.612-1.758,1.292-2.542,1.925l.183-1.721Zm3.018-26.677s-.12,3.756.146,7.532c-.408.288-.832.6-1.25.931l.926-8.709Z" transform="translate(-216.875 -42.289)" fill="url(#linear-gradient)"/>
    <path id="Path_235" data-name="Path 235" d="M554.812,751.157c-1.438,0-3.008,2.485-3.008,2.485-12.946,5.231-14.254-7.846-13.6-9.416s3.269-10.2,3.269-10.2-.392-6.016-.785-7.716a29.173,29.173,0,0,0-1.449-3.74c-.879-2-1.82-3.975-1.82-3.975s5.623-13.862,13.077-12.554a8.413,8.413,0,0,1,3.662,1.569c4.1,3.086,4.342,9.724,1.292,14.646-3.792,6.146,1.7,17.785,3.008,21.577S556.251,751.157,554.812,751.157Z" transform="translate(-289.117 -352.186)" fill="#fdc2cc"/>
    <path id="Path_236" data-name="Path 236" d="M499.779,792.418c-3.792,8.239-14.254-.131-15.823-.392s-6.016-2.877-6.539-5.492-6.994-7.967-7.323-8.233c.35.11.052.094-.272-.523-9.677-3.531-5.492-10.462-5.492-10.462l4.509-15.891,1.245-4.378,14.123-.915s-.968,3.091-2.045,6.34c-1.135,3.405-2.391,6.988-2.793,7.391-.785.785.392,5.885,1.046,6.931s4.708,6.931,4.708,6.931l7.977,5.1S503.571,784.179,499.779,792.418Z" transform="translate(-253.83 -371.346)" fill="#fdc2cc"/>
    <path id="Path_237" data-name="Path 237" d="M489.158,746.12s-.968,3.091-2.045,6.34a3.76,3.76,0,0,1-1.878-1.24l-11.377.262-.068-.068,1.245-4.378Z" transform="translate(-258.771 -371.342)" opacity="0.1"/>
    <path id="Path_238" data-name="Path 238" d="M531.937,467.6a.566.566,0,0,1-.068.214c-1.088,3.332-14.479,44.462-15.232,46.732-.785,2.354-4.577,10.462-4.577,10.462s-1.961,7.062-1.961,8.239-2.746,6.015-2.485,7.192-1.831,4.315-1.831,6.408-.131,3.923,0,5.362c.1,1.1.586,7.266-1.313,11.508a7.736,7.736,0,0,1-1.8,2.615,5.592,5.592,0,0,1-.675.523c-4.708,3.139-5.1,35.308-5.1,35.308l-.22.345-1.909,2.992-5.848,9.1s-4.708,1.962-6.931-.785l-11.377.262a28.636,28.636,0,0,0-3.4-3.008c-.654-.262.262-5.231.262-5.231a9.26,9.26,0,0,1-.131-3.008c.261-1.046,1.7-9.416,1.7-9.416s1.7-1.438,1.569-2.877,1.438-11.116,1.438-11.116l1.611-6.648.8-3.28,1.648-6.8,11.116-98.209,14.123-4.315,27.2,1.308,2.982,5.388Z" transform="translate(-255.518 -234.968)" fill="#5f5d7e"/>
    <path id="Path_239" data-name="Path 239" d="M500.441,515.819c-.131,2.485-.785,6.277-.523,8.5s1.177,10.593.785,12.162,1.438,3.4,2.092,4.185.262,3.138.392,4.969a6.69,6.69,0,0,0,1.831,3.531s-1.962,4.185-.523,4.839,4.446,6.669,4.446,6.669,1.01,1.271,2.349,3a7.172,7.172,0,0,1-2.479,3.139c-4.708,3.138-5.1,35.308-5.1,35.308l-.22.345-2.919-5.838S483.179,570.34,482,569.948a1.842,1.842,0,0,1-.732-.523l1.648-6.8,11.116-98.209,14.123-4.315,27.2,1.308-14.322,1.438s-6.366,4.567-6.408,4.708l-11.44,4.839-2.092,31.385S500.572,513.334,500.441,515.819Z" transform="translate(-262.338 -234.934)" opacity="0.1"/>
    <path id="Path_240" data-name="Path 240" d="M537.614,466.839c-.361,1.454-38.028-2.9-38.028-2.9l.262,10.069-2.092,31.385s-.523,9.546-.654,12.031-.785,6.277-.523,8.5,1.177,10.592.785,12.162,1.438,3.4,2.092,4.185.262,3.138.392,4.969a6.689,6.689,0,0,0,1.831,3.531s-1.962,4.185-.523,4.839,4.446,6.669,4.446,6.669,1.438,1.815,3.139,4.043a5.6,5.6,0,0,1-.675.523c-4.708,3.138-5.1,35.308-5.1,35.308l-.22.345-1.888,3-3.625-7.245s-13.417-20.28-17.481-25.479l.8-3.28,1.648-6.8,11.116-98.209,14.123-4.315,27.2,1.308Z" transform="translate(-261.614 -234.968)" opacity="0.1"/>
    <path id="Path_241" data-name="Path 241" d="M554.174,707.589c-.523,9.363-10.388,13.945-14.934,14.981-.879-2-1.82-3.975-1.82-3.975s5.623-13.862,13.077-12.554A8.41,8.41,0,0,1,554.174,707.589Z" transform="translate(-289.117 -352.186)" opacity="0.1"/>
    <path id="Path_242" data-name="Path 242" d="M476.366,493.443c-.131,2.485-.785,6.277-.523,8.5s1.177,10.592.785,12.162,1.439,3.4,2.092,4.185.262,3.139.392,4.969a6.689,6.689,0,0,0,1.831,3.531s-1.962,4.185-.523,4.839,4.446,6.669,4.446,6.669,8.5,10.723,8.892,12.031,3.792,2.092,3.792,2.092,5.885.654,6.8,13.208-14.516,17.393-16.869,17-7.192-.785-7.192-.785l-3.792-7.585s-17.393-26.285-18.57-26.677-2.223-2.877-2.485-4.577-1.438-2.354-2.746-3.138-1.046-5.1-2.092-6.146-.915-4.315-1.569-5.231.523-3.269.523-3.269-2.746-3.139-2.746-3.531.131-3.531.131-3.531a3.571,3.571,0,0,1-.915-2.877c.392-1.438-1.046-4.839-1.046-4.839a4.416,4.416,0,0,1-1.046-2.485,41.875,41.875,0,0,0-.654-5.623,10.35,10.35,0,0,1-.785-3.792c.131-1.569-1.046-7.846-1.046-7.846a7.674,7.674,0,0,1-1.177-3.008c0-1.177.131-5.623.131-5.623s-2.092-3.792-1.177-5.623-.262-7.323-1.046-8.369-1.439-10.2-2.223-10.985,0-3.923,0-3.923L434.78,442.05s-.785-3.923-.131-5.1-.262-4.054-.523-5.362.654-5.362.392-6.8a14.716,14.716,0,0,1,.685-4c.617-2.385,1.407-4.891,1.407-4.891s67.216-6.277,76.893.262a10.968,10.968,0,0,1,4.185,6.021c2.861,9.123-1.418,23.016-1.418,23.016l-37.139,4.839-2.092,31.385S476.5,490.958,476.366,493.443Z" transform="translate(-239.832 -212.558)" fill="#5f5d7e"/>
    <path id="Path_243" data-name="Path 243" d="M494.42,653.809s11.639-3.531,14.385-1.177S494.42,653.809,494.42,653.809Z" transform="translate(-268.61 -326.37)" opacity="0.1"/>
    <path id="Path_244" data-name="Path 244" d="M502.42,680.9a9.71,9.71,0,0,1,8.762-2.615,14.255,14.255,0,0,0,9.154-.915Z" transform="translate(-272.425 -338.554)" opacity="0.1"/>
    <path id="Path_245" data-name="Path 245" d="M525.92,691.8s9.546-1.308,9.939-.131S525.92,691.8,525.92,691.8Z" transform="translate(-283.633 -345.14)" opacity="0.1"/>
    <path id="Path_246" data-name="Path 246" d="M520.193,705.16s10.592-3.139,11.116-1.831-11.639,1.7-11.639,1.7Z" transform="translate(-280.652 -350.782)" opacity="0.1"/>
    <path id="Path_247" data-name="Path 247" d="M535.54,572.37s-9.939,8.762-8.5,9.677S535.54,572.37,535.54,572.37Z" transform="translate(-284.099 -288.478)" opacity="0.1"/>
    <path id="Path_248" data-name="Path 248" d="M527.92,613.87s6.931,0,5.623,1.569S527.92,613.87,527.92,613.87Z" transform="translate(-284.586 -308.27)" opacity="0.1"/>
    <path id="Path_249" data-name="Path 249" d="M533.921,625.62s-2.746,2.354-2.092,2.877S533.921,625.62,533.921,625.62Z" transform="translate(-286.402 -313.873)" opacity="0.1"/>
    <path id="Path_250" data-name="Path 250" d="M478.17,732.87s8.631,2.877,8.762,4.708S478.17,732.87,478.17,732.87Z" transform="translate(-260.86 -365.023)" opacity="0.1"/>
    <path id="Path_251" data-name="Path 251" d="M511.033,187.488l-2.746,16.346s-23.8,12.554-24.193,12.554-17.393-2.877-18.046-2.877-11.769-33.608-3.923-35.7a51.26,51.26,0,0,0,8.568-3.615c9.07-4.535,20.2-11.424,20.2-11.424s16.608-1.831,12.554,9.677c-1.569,4.514-.764,7.8.821,10.127A14.139,14.139,0,0,0,511.033,187.488Z" transform="translate(-251.876 -93.083)" fill="#fdc2cc"/>
    <path id="Path_252" data-name="Path 252" d="M511.033,198l-2.746,16.346s-23.8,12.554-24.193,12.554-17.393-2.877-18.046-2.877-11.769-33.608-3.923-35.7a51.265,51.265,0,0,0,8.568-3.615c2.139.141,3.594.345,3.594.345s5.231,20.008,5.623,26.154,13.992,6.8,14.908,6.539,4.708-15.3,4.708-15.3-.392-5.231.785-5.231c.983,0,3.254-3.139,3.96-4.127A14.139,14.139,0,0,0,511.033,198Z" transform="translate(-251.876 -103.596)" opacity="0.1"/>
    <path id="Path_253" data-name="Path 253" d="M518.675,422.183c-1.82.889-6.172,2.919-7.323,2.615a28.416,28.416,0,0,0-4.969-.392s-2.092,2.354-4.315,1.831-10.985-.131-10.985-.131-15.693.654-18.7-.392-13.731-1.962-13.731-1.962-14.646-1.7-17.131-2.746a4.284,4.284,0,0,0-4.315.523s-.455-.3-1.015-.732c.617-2.385,1.407-4.891,1.407-4.891s67.216-6.277,76.893.262A10.833,10.833,0,0,1,518.675,422.183Z" transform="translate(-240.839 -212.563)" opacity="0.1"/>
    <path id="Path_254" data-name="Path 254" d="M450.84,185.046s-13.208-1.831-18.439,1.7a15.473,15.473,0,0,1-6.162,2.38,11.534,11.534,0,0,0-7.417,4.42c-.335.45-.659.753-.936.785-1.177.131-7.716,20.4-7.716,20.4l15.823,22.1s-.392,12.292,1.831,14.646-3.139,29.293-3.139,29.293-2.615,9.285-1.438,10.723,0,3.269,0,3.269-.262,2.354.392,2.354,1.438,3.008.785,3.138-3.662,2.615-2.615,3.139,0,1.7,0,2.877,3.008,3.138,3.008,3.138a4.284,4.284,0,0,1,4.315-.523c2.485,1.046,17.131,2.746,17.131,2.746s10.723.915,13.731,1.962,18.7.392,18.7.392,8.762-.392,10.985.131,4.315-1.831,4.315-1.831a28.416,28.416,0,0,1,4.969.392c1.439.392,8.108-3.008,8.108-3.008s-1.7-4.969-.915-6.8.262-5.362.262-5.362-3.139-1.831-3.269-2.615-1.438-1.831-1.046-2.877,2.615-.523,2.354-2.877-3.008-4.839-2.746-6.277,1.308-4.054,0-5.623a10.989,10.989,0,0,1-1.962-6.015c-.131-1.962,1.962-19.746,1.962-19.746l-4.839-35.831,14.777-7.323a55.217,55.217,0,0,0-1.569-7.846c-.915-2.746-2.223-7.585-2.223-7.585s-3.008-5.885-3.662-6.146-7.585-4.839-9.154-4.185-13.992,10.2-13.992,10.2-3.008,4.446-4.185,4.446-.785,5.231-.785,5.231-3.792,15.039-4.708,15.3-14.516-.392-14.908-6.539S450.84,185.046,450.84,185.046Z" transform="translate(-228.43 -102.541)" fill="#d39999"/>
    <path id="Path_255" data-name="Path 255" d="M437.131,327.759a29.652,29.652,0,0,1-5.519.68c-2.683.073-5.043-.267-5.623-1.234-1.569-2.615-1.569-7.585-1.569-7.585s7.093,1.637,11.989,3.426l.811.3h0c1.9.738,3.343,1.491,3.662,2.15C441.337,326.383,439.584,327.21,437.131,327.759Z" transform="translate(-235.226 -167.937)" fill="#fdc2cc"/>
    <circle id="Ellipse_14" data-name="Ellipse 14" cx="23.931" cy="23.931" r="23.931" transform="translate(229.341 39.22)" opacity="0.1"/>
    <circle id="Ellipse_15" data-name="Ellipse 15" cx="23.931" cy="23.931" r="23.931" transform="translate(229.341 38.174)" fill="#fdc2cc"/>
    <path id="Path_256" data-name="Path 256" d="M445.67,395.37s6.8,0,9.415.654a52.188,52.188,0,0,0,8.108.785S448.024,396.285,445.67,395.37Z" transform="translate(-245.36 -204.063)" opacity="0.1"/>
    <path id="Path_257" data-name="Path 257" d="M446.17,403.37s8.762.654,8.892,1.962S446.17,403.37,446.17,403.37Z" transform="translate(-245.599 -207.879)" opacity="0.1"/>
    <path id="Path_258" data-name="Path 258" d="M573.67,372.62s5.362,1.962,5.231,2.615S574.193,374.189,573.67,372.62Z" transform="translate(-306.405 -193.214)" opacity="0.1"/>
    <path id="Path_259" data-name="Path 259" d="M404.618,239.62l-3.4,2.354s-1.438,8.369-1.438,10.331-2.354,16.085-2.354,16.085-.785,2.615-.523,3.662-1.046,6.408-1.046,6.408-4.708,10.854-4.446,11.508,22.362,2.746,22.362,2.746l3.139-29.293Z" transform="translate(-219.478 -129.784)" fill="#d39999"/>
    <path id="Path_260" data-name="Path 260" d="M394.689,329.12l-3.269,3.531s-.131,11.508,3.139,12.685,5.362.654,6.408,1.569,6.669,2.615,6.669,2.615,6.146.915,7.977.654-10.723-10.331-2.485-18.831Z" transform="translate(-219.487 -172.468)" fill="#d39999"/>
    <path id="Path_261" data-name="Path 261" d="M585.047,222.12l4.577,5.1s1.962,12.162,1.438,13.862,2.746,31.254,2.746,31.254,3.138,12.816-3.923,14.516a12.337,12.337,0,0,0-1.7,1.831c-.261.523-5.885-.262-5.885-.262L573.67,231.8Z" transform="translate(-306.405 -121.438)" fill="#d39999"/>
    <path id="Path_262" data-name="Path 262" d="M455.674,292.9s17.131-10.2,20.27-10.723,22.623-9.808,22.623-9.808,9.677,4.969,10.592,8.762-4.054,18.962-4.054,18.962-15.954,11.116-16.869,13.469-14.646,9.285-14.646,10.462-21.708,13.992-31.254,2.746-9.415-14.516-9.415-14.516l24.193-5.623,2.354-10.462Z" transform="translate(-239.279 -145.403)" opacity="0.1"/>
    <path id="Path_263" data-name="Path 263" d="M455.674,290.9s17.131-10.2,20.27-10.723,22.623-9.808,22.623-9.808,9.677,4.969,10.592,8.762-4.054,18.962-4.054,18.962-15.954,11.116-16.869,13.469-14.646,9.285-14.646,10.462-21.708,13.993-31.254,2.746-9.415-14.516-9.415-14.516l24.193-5.623,2.354-10.462Z" transform="translate(-239.279 -144.449)" fill="#c4c8e2"/>
    <path id="Path_264" data-name="Path 264" d="M408.363,313.731l-.785,6.539-6.219-.455-6.073-.45s-3.531,0-5.754-5.231,4.969-6.015,5.362-5.231c.3.591,7.846,3.055,11.508,4.221Z" transform="translate(-218.384 -162.702)" fill="#fdc2cc"/>
    <path id="Path_265" data-name="Path 265" d="M419.534,317.817l-.785,6.539-6.219-.455c1.015-1.507,3.139-4.263,5.048-6.69Z" transform="translate(-229.555 -166.788)" opacity="0.1"/>
    <path id="Path_266" data-name="Path 266" d="M424.42,319.62s7.093,1.637,11.989,3.426c-.324.523-2.49,3.913-4.8,5.393-2.683.073-5.043-.267-5.623-1.234C424.42,324.589,424.42,319.62,424.42,319.62Z" transform="translate(-235.226 -167.937)" opacity="0.1"/>
    <path id="Path_267" data-name="Path 267" d="M448.461,331.164l-.115-.9s-.052-.194-.1-.486a3.239,3.239,0,0,1,.277-2.213c.256-.361.2-.617.031-.8,1.9.738,3.342,1.491,3.662,2.15C452.667,329.789,450.914,330.615,448.461,331.164Z" transform="translate(-246.556 -171.342)" opacity="0.1"/>
    <path id="Path_268" data-name="Path 268" d="M441.209,312.129s-7.1,7.109-7.543,8.631-13.862,1.569-13.862,1.569l-.915-7.323s-.052-.194-.1-.486a3.24,3.24,0,0,1,.277-2.213c.654-.915-.743-1.177-.743-1.177s-3.62,5.968-6.669,6.146c0,0-4.227,3.05-4.185,3.662a6.713,6.713,0,0,0-2.092,4.138c-.042,2.265-2.657,3.186-4.577,2.532s-6.669-2.051-8.2-1.831-6.361,1.653-6.188-2.835c0,0,6.277-4.708,7.846-4.577s5.231-1.7,5.754-3.138,9.415-12.423,9.415-12.423,5.623-5.32,7.888-5.843c0,0,4.535-3.531,11.377,1.831,0,0,9.463,5.838,9.766,6.622.241.617,2.987,3.254,3.217,5.231A1.616,1.616,0,0,1,441.209,312.129Z" transform="translate(-217.099 -156.586)" fill="#fdc2cc"/>
    <path id="Path_269" data-name="Path 269" d="M448.116,307.12s.7,4.012.35,5.451-1.046,3.923-1.046,3.923S451.647,309.866,448.116,307.12Z" transform="translate(-246.195 -161.976)" opacity="0.1"/>
    <path id="Path_270" data-name="Path 270" d="M449.33,324.068s2.181-2.4,2.662-1.789S449.33,324.068,449.33,324.068Z" transform="translate(-247.106 -169.158)" opacity="0.1"/>
    <path id="Path_271" data-name="Path 271" d="M592.15,265.069a15.306,15.306,0,0,1-11.111,14.72,15.052,15.052,0,0,1-4.116.586h-.079a15.3,15.3,0,0,1-15.295-15.305,14.565,14.565,0,0,1,.241-2.678,15.274,15.274,0,0,1,13.945-12.554c.366-.031.737-.047,1.109-.047A15.3,15.3,0,0,1,592.15,265.069Z" transform="translate(-300.625 -134.634)" fill="#f8bdc5"/>
    <path id="Path_272" data-name="Path 272" d="M612.915,260.957a5.382,5.382,0,0,1,1.245,3.17,6.01,6.01,0,0,0-6.444,4.561q-.717,1.679-1.423,3.358a16.56,16.56,0,0,1-2.8,4.938,9.667,9.667,0,0,0-1.454,1.684c-.361.654-.523,1.48-1.109,1.92a2.092,2.092,0,0,1-1.977.11c-.643-.241-1.219-.643-1.862-.9a5.929,5.929,0,0,0-1.282-.335h0c-1.914-.282-4.023.131-5.649-.9a3.367,3.367,0,0,1-.523-.429,5.063,5.063,0,0,1-1.334-2.26,2.542,2.542,0,0,1-.125-1.083,2.338,2.338,0,0,1,1.214-1.569c.089-.052.178-.1.272-.152,1.569-.821,3.75-1.015,4.572-2.615.785-1.517-.188-3.363-1.381-4.587-.565-.575-1.234-1.229-1.156-2.035.073-.711.706-1.208,1.234-1.684a9.165,9.165,0,0,0,2.866-5.142,3.909,3.909,0,0,0-.031-1.857,4.925,4.925,0,0,0-.664-1.219l-1.695-2.511a6.889,6.889,0,0,0-2.092-2.218c-.706-.424-1.517-.57-2.228-.989a1.768,1.768,0,0,1-.659-.628.675.675,0,0,1-.084-.492c.089-.418.523-.622.957-.743a9.325,9.325,0,0,1,3.463-.33,2.689,2.689,0,0,0,1.12,0,.79.79,0,0,0,.581-.853c1.287-.335,2.506.67,3.447,1.611s2.092,1.972,3.421,1.705c.476-.094.915-.366,1.4-.418s1.078.262,1.046.748-.638.8-.586,1.271a.937.937,0,0,0,.214.439,11.058,11.058,0,0,0,2.129,2.207v-2.783c1.046.262,1.428,1.6,1.308,2.683a9.606,9.606,0,0,0-.272,3.233,1.187,1.187,0,0,0,.628.853,1.57,1.57,0,0,0,.821,0c2.4-.34,5.2.3,6.4,2.406l-2.092-.758,2.432,1.329a2.558,2.558,0,0,1,.868.654.869.869,0,0,1,.063,1.015,3.248,3.248,0,0,0-2.772-.408Z" transform="translate(-313.319 -132.399)" fill="#585268"/>
    <g id="Group_32" data-name="Group 32" transform="translate(274.957 112.589)" opacity="0.1">
      <path id="Path_273" data-name="Path 273" d="M626.637,267a1.569,1.569,0,0,0,.821,0c.235-.031.471-.052.711-.068a8.432,8.432,0,0,0-1.569.047Z" transform="translate(-606.605 -255.392)"/>
      <path id="Path_274" data-name="Path 274" d="M636.43,270.26l.9.5-.167-.235Z" transform="translate(-611.293 -256.986)"/>
      <path id="Path_275" data-name="Path 275" d="M622.576,256.923v-1.831a1.611,1.611,0,0,0-1.046-.952v1.841a11.244,11.244,0,0,0,1.046.942Z" transform="translate(-604.187 -249.298)"/>
      <path id="Path_276" data-name="Path 276" d="M638.43,275.028a3.244,3.244,0,0,1,1.287.523.648.648,0,0,0,.131-.424,3.327,3.327,0,0,0-1.418-.1Z" transform="translate(-612.247 -259.243)"/>
      <path id="Path_277" data-name="Path 277" d="M600.21,281.356c-.643-.241-1.219-.643-1.862-.9a5.925,5.925,0,0,0-1.282-.335h0c-1.914-.282-4.023.131-5.649-.9a3.37,3.37,0,0,1-.523-.429,5.063,5.063,0,0,1-1.334-2.26,2.542,2.542,0,0,1-.126-1.083,2.339,2.339,0,0,1,1.214-1.569c.089-.052.178-.1.272-.152,1.6-.821,3.75-1.015,4.572-2.615.785-1.517-.188-3.363-1.381-4.587-.565-.575-1.234-1.229-1.156-2.035.073-.711.706-1.208,1.234-1.684a9.165,9.165,0,0,0,2.866-5.142,3.909,3.909,0,0,0-.031-1.857,4.923,4.923,0,0,0-.664-1.219l-1.695-2.511a6.889,6.889,0,0,0-2.092-2.218c-.706-.424-1.517-.57-2.228-.989a1.769,1.769,0,0,1-.659-.628.675.675,0,0,1-.084-.492c.089-.418.549-.622.957-.743a9.67,9.67,0,0,1,2.092-.345,9.416,9.416,0,0,0-3.139.345c-.408.12-.868.324-.957.743a.675.675,0,0,0,.084.492,1.768,1.768,0,0,0,.659.628c.711.418,1.522.565,2.228.989a6.889,6.889,0,0,1,2.092,2.218l1.695,2.511a4.921,4.921,0,0,1,.664,1.219,3.906,3.906,0,0,1,.031,1.857,9.164,9.164,0,0,1-2.867,5.142c-.523.476-1.161.973-1.234,1.684-.078.806.591,1.459,1.156,2.035,1.193,1.224,2.166,3.071,1.381,4.587-.821,1.6-2.976,1.789-4.572,2.615-.094.047-.183.1-.272.152a2.338,2.338,0,0,0-1.214,1.569,2.542,2.542,0,0,0,.126,1.083,5.063,5.063,0,0,0,1.334,2.26,3.371,3.371,0,0,0,.523.429c1.627,1.046,3.735.617,5.649.9h0a5.924,5.924,0,0,1,1.282.335c.643.256,1.219.659,1.862.9a2.469,2.469,0,0,0,1.475.126,3.087,3.087,0,0,1-.429-.126Z" transform="translate(-588.375 -245.725)"/>
      <path id="Path_278" data-name="Path 278" d="M614.627,250.954a7.7,7.7,0,0,0,.947-.309,1.125,1.125,0,0,0-.6-.11,11.02,11.02,0,0,0-1.308.4,2.181,2.181,0,0,0,.957.021Z" transform="translate(-600.439 -247.577)"/>
      <path id="Path_279" data-name="Path 279" d="M599.087,245.823a2.689,2.689,0,0,0,1.119-.026.79.79,0,0,0,.581-.847,2.092,2.092,0,0,0-1.046,0,.79.79,0,0,1-.581.853.835.835,0,0,1-.11.026Z" transform="translate(-593.466 -244.883)"/>
    </g>
    <path id="Path_280" data-name="Path 280" d="M546.474,256.93c-1.951,1.459-5.063,2.092-7.925,2.3a42.565,42.565,0,0,1-6.722,0l-5.037-1.894s.408-.811,1.1-1.883c1.376-2.134,3.876-5.309,6.486-5.178,3.923.194,8.045.387,8.437.387S550.852,253.661,546.474,256.93Z" transform="translate(-284.048 -134.864)" fill="#fdc2cc"/>
    <path id="Path_281" data-name="Path 281" d="M499.87,62.806c-3.724-.068-7.569-.11-10.985,1.323-6.868,2.84-10.106,10.43-14.259,16.55A47.334,47.334,0,0,1,461.68,93.5c-2.406,1.569-5.2,3.3-5.78,6.12-.617,2.987,1.517,5.754,2.615,8.584,2.328,6.021,0,12.69-1.376,19a61.671,61.671,0,0,0-1.24,9.2,12.764,12.764,0,0,0,.277,4.279c1.046,3.693,5,6.361,5.032,10.2,0,2.615-1.841,5.084-1.3,7.627.7,3.248,4.64,4.42,7.909,4.98a4.043,4.043,0,0,0,2.38-.073c.523-.251.952-.732,1.486-1,1.815-.9,3.829,1,5.859.962,2.547-.047,3.981-3.055,4.043-5.6s-.617-5.231.3-7.585c1.219-3.139,4.708-4.629,7.653-6.277,3.259-1.826,6.361-4.462,7.323-8.066a18.871,18.871,0,0,0,.089-6.879c-.366-3.515-.654-7.046-.853-10.572A14.9,14.9,0,0,1,512.027,102.6h.167c2.615.214,5.7.466,7.548-1.438.732-.758,1.2-1.8,2.092-2.328,1.747-.994,4.148.424,5.906-.554,1.376-.769,1.669-2.615,1.454-4.185s-.764-3.138-.471-4.676c.418-2.181,2.4-3.74,3.138-5.838.847-2.391-.068-5.063-1.386-7.229-4.221-6.962-12.816-12.413-20.871-13.145C506.367,62.9,503.119,62.859,499.87,62.806Z" transform="translate(-250.187 -45.446)" fill="#865a61"/>
    <path id="Path_282" data-name="Path 282" d="M527.888,260.15a52.742,52.742,0,0,1,10.661,3.787,42.569,42.569,0,0,1-6.722,0l-5.037-1.894A21.863,21.863,0,0,1,527.888,260.15Z" transform="translate(-284.048 -139.575)" opacity="0.1"/>
    <path id="Path_283" data-name="Path 283" d="M583.122,293.187c-1.914-.282-4.023.131-5.649-.9a3.363,3.363,0,0,1-.523-.429h-.078a15.3,15.3,0,0,1-15.321-15.3,14.566,14.566,0,0,1,.241-2.678c5.362,3,9.708,6.078,10.545,7.585a31.132,31.132,0,0,0,4.342,5.477c1.459,1.569,3.023,3.076,4.363,4.336C581.835,292.015,582.552,292.669,583.122,293.187Z" transform="translate(-300.625 -146.123)" opacity="0.1"/>
    <path id="Path_284" data-name="Path 284" d="M561.357,288.518s-9.546-8.239-12.162-12.946-39.362-24.716-34.654-9.546,20.923,16.608,20.923,16.608,5.231,5.885,5.754,8.762a40.955,40.955,0,0,0,2.354,7.062l8.762,3.923,4.054-.915S565.934,296.233,561.357,288.518Z" transform="translate(-278.007 -139.712)" fill="#fdc2cc"/>
    <path id="Path_285" data-name="Path 285" d="M569.42,321.389s15.431,8.762,17-11.769l3.923,1.308-3.923,13.862-6.669,4.839S570.466,325.313,569.42,321.389Z" transform="translate(-304.379 -163.168)" opacity="0.1"/>
    <path id="Path_286" data-name="Path 286" d="M570.42,322.389s15.431,8.762,17-11.769l3.923,1.308-3.923,13.862-6.669,4.839S571.466,326.313,570.42,322.389Z" transform="translate(-304.855 -163.645)" fill="#d39999"/>
    <path id="Path_287" data-name="Path 287" d="M568.769,119.787a47.332,47.332,0,0,1,1.318-5.372,14.192,14.192,0,0,0,.157-5.315,7.715,7.715,0,0,0-1.381-3.536c-.523-.654-2.092-2.092-3.008-1.444-.523.371-.664,2.521-.874,3.138a27.1,27.1,0,0,1-2.929,5.885A23.926,23.926,0,0,1,542.7,151.109c-.57,0-1.135-.026-1.695-.068-.523.91-1,1.831-1.48,2.751a8.547,8.547,0,0,0-1.13,3.05,7.94,7.94,0,0,0,.466,3.034,42.8,42.8,0,0,0,4.007,9.149,13.827,13.827,0,0,1,1.438,2.861c.3.968.351,2,.738,2.934.868,2.092,3.138,3.139,5.231,4.012a8.545,8.545,0,0,0,3.907.936.91.91,0,0,0,.978-.926,3.541,3.541,0,0,0-1.046-3.008,15.013,15.013,0,0,0,5.492.654.884.884,0,0,0,.952-1.3,23.539,23.539,0,0,0-2.187-5.66c-.952-1.758-2.166-3.8-1.3-5.6a6.2,6.2,0,0,1,2.5-2.255c3.217-2.092,6.068-5.5,5.817-9.337-.136-2.092-1.193-4.085-1.255-6.193-.162-5.142,5.372-8.819,6.209-13.9C571,128.1,568.366,123.987,568.769,119.787Z" transform="translate(-289.578 -65.083)" fill="#865a61"/>
    <g id="Group_33" data-name="Group 33" transform="translate(205.356 35.067)" opacity="0.1">
      <path id="Path_288" data-name="Path 288" d="M460.707,216.274c-.031-3.839-3.981-6.507-5.032-10.2a8.589,8.589,0,0,1-.3-1.784,11.745,11.745,0,0,0,.3,3.876c.962,3.374,4.331,5.9,4.933,9.238a6.284,6.284,0,0,0,.1-1.13Z" transform="translate(-455.323 -148.001)"/>
      <path id="Path_289" data-name="Path 289" d="M480.671,246.459c-2.03.037-4.043-1.862-5.859-.962-.523.267-.942.748-1.486,1a4.043,4.043,0,0,1-2.38.073c-3.259-.56-7.192-1.726-7.9-4.948a5.356,5.356,0,0,0,0,2.061c.7,3.248,4.64,4.42,7.909,4.98a4.043,4.043,0,0,0,2.38-.073c.523-.251.952-.732,1.486-1,1.815-.9,3.829,1,5.859.962,2.547-.047,3.981-3.055,4.043-5.6,0-.523,0-1.046-.037-1.569C484.422,243.8,483.041,246.412,480.671,246.459Z" transform="translate(-458.956 -165.69)"/>
      <path id="Path_290" data-name="Path 290" d="M519.664,196.542c-.973,3.6-4.075,6.24-7.323,8.066-2.945,1.653-6.434,3.139-7.653,6.277a10.007,10.007,0,0,0-.45,4.211,7.407,7.407,0,0,1,.45-2.118c1.219-3.138,4.708-4.629,7.653-6.277,3.259-1.826,6.361-4.462,7.323-8.066a13.222,13.222,0,0,0,.33-4.185A10.755,10.755,0,0,1,519.664,196.542Z" transform="translate(-478.621 -143.308)"/>
      <path id="Path_291" data-name="Path 291" d="M561.7,127.16c-1.261-.094-2.574-.387-3.662.22-.915.523-1.381,1.569-2.092,2.328-1.846,1.9-4.906,1.653-7.548,1.438h-.167A14.908,14.908,0,0,0,532.3,146.938v.209a14.892,14.892,0,0,1,15.923-13.909h.167c2.615.214,5.7.466,7.548-1.438.732-.758,1.2-1.8,2.092-2.328,1.046-.607,2.38-.314,3.662-.22a23.84,23.84,0,0,1,1.7,7.846c0-.34.026-.68.026-1.046a23.9,23.9,0,0,0-1.716-8.894Z" transform="translate(-492.018 -111.143)"/>
      <path id="Path_292" data-name="Path 292" d="M458.985,146.484a16.158,16.158,0,0,0-.957-6.7c-.826-2.139-2.244-4.237-2.615-6.418-.57,2.955,1.538,5.691,2.615,8.511A15,15,0,0,1,458.985,146.484Z" transform="translate(-455.316 -114.178)"/>
      <path id="Path_293" data-name="Path 293" d="M597.538,116.12a13.593,13.593,0,0,1-.293,2,47.319,47.319,0,0,0-1.318,5.372,10.279,10.279,0,0,0,0,1.967,50.252,50.252,0,0,1,1.3-5.231,14.171,14.171,0,0,0,.309-4.111Z" transform="translate(-522.353 -105.951)"/>
      <path id="Path_294" data-name="Path 294" d="M593.266,153.655c-.837,5.079-6.371,8.756-6.209,13.9a7.23,7.23,0,0,0,.073.832c.659-4.5,5.372-7.982,6.136-12.638a9.672,9.672,0,0,0,.052-2.547A3.348,3.348,0,0,1,593.266,153.655Z" transform="translate(-518.144 -123.635)"/>
      <path id="Path_295" data-name="Path 295" d="M599.033,97.648a14.647,14.647,0,0,1-1.883,3.138,7.263,7.263,0,0,1,.523,1.318,10.4,10.4,0,0,0,1.344-2.39,6.277,6.277,0,0,0,.241-3.034A5.521,5.521,0,0,1,599.033,97.648Z" transform="translate(-522.959 -96.68)"/>
      <path id="Path_296" data-name="Path 296" d="M581.545,195.39c-.466,3.2-2.971,5.989-5.754,7.815a6.353,6.353,0,0,0-2.5,2.254,3.463,3.463,0,0,0-.141,2.448,2.3,2.3,0,0,1,.141-.356,6.2,6.2,0,0,1,2.5-2.255c3.217-2.092,6.068-5.5,5.817-9.337C581.6,195.767,581.571,195.578,581.545,195.39Z" transform="translate(-511.44 -143.756)"/>
      <path id="Path_297" data-name="Path 297" d="M554.325,225.2a1.119,1.119,0,0,1-.675.23,8.479,8.479,0,0,1-3.907-.936c-2.092-.868-4.373-1.925-5.231-4.012-.387-.931-.439-1.967-.738-2.934a13.837,13.837,0,0,0-1.439-2.861,42.791,42.791,0,0,1-4.007-9.149,14.046,14.046,0,0,1-.377-1.47c-.037.173-.068.35-.089.523a7.939,7.939,0,0,0,.466,3.034,42.794,42.794,0,0,0,4.007,9.149,13.833,13.833,0,0,1,1.439,2.861c.3.968.35,2,.738,2.934.868,2.092,3.139,3.139,5.231,4.012a8.545,8.545,0,0,0,3.907.936.91.91,0,0,0,.978-.926,3.47,3.47,0,0,0-.157-1.569A.633.633,0,0,1,554.325,225.2Z" transform="translate(-494.681 -147.896)"/>
      <path id="Path_298" data-name="Path 298" d="M574.088,237.882a1.668,1.668,0,0,1-.685.162,15.013,15.013,0,0,1-5.492-.654,3.531,3.531,0,0,1,1.072,2.38,14.954,14.954,0,0,0,4.42.366.884.884,0,0,0,.952-1.3C574.276,238.515,574.182,238.2,574.088,237.882Z" transform="translate(-509.014 -163.787)"/>
    </g>
    <path id="Path_299" data-name="Path 299" d="M440.094,260.37s-.523,10.723,1.046,11.508S440.094,260.37,440.094,260.37Z" transform="translate(-242.661 -139.68)" opacity="0.1"/>
    <path id="Path_300" data-name="Path 300" d="M496.92,314.37c.523,0,2.615,1.046,2.877,2.223S496.92,314.37,496.92,314.37Z" transform="translate(-269.802 -165.433)" opacity="0.1"/>
    <path id="Path_301" data-name="Path 301" d="M494.42,317.62c.523,0,2.615,1.046,2.877,2.223S494.42,317.62,494.42,317.62Z" transform="translate(-268.61 -166.983)" opacity="0.1"/>
    <path id="Path_302" data-name="Path 302" d="M503.67,326.62c.523,0,2.615,1.046,2.877,2.223S503.67,326.62,503.67,326.62Z" transform="translate(-273.021 -171.275)" opacity="0.1"/>
    <path id="Path_303" data-name="Path 303" d="M470.729,325.393s-7.1,7.109-7.543,8.631-13.862,1.569-13.862,1.569l-.915-7.323s-.052-.194-.1-.486c3.709-.952,15.734-5.393,22.89-3.819A1.616,1.616,0,0,1,470.729,325.393Z" transform="translate(-246.619 -169.85)" opacity="0.1"/>
    <path id="Path_304" data-name="Path 304" d="M427.838,334.845s6.847-6.057,8.939-5.927,27.593-10.723,29.293,1.438-32.562,12.816-32.562,12.816l-5.231,1.962S423.915,335.63,427.838,334.845Z" transform="translate(-236.075 -170.305)" fill="#fdc2cc"/>
    <path id="Path_305" data-name="Path 305" d="M425.023,344.337s3.138-4.357,4.1.957,2.4,11.858,2.4,11.858l-7.02-3.489Z" transform="translate(-235.264 -178.923)" fill="#d39999"/>
    <ellipse id="Ellipse_16" data-name="Ellipse 16" cx="23.429" cy="3.594" rx="23.429" ry="3.594" transform="translate(456.961 343.984)" fill="#68a5de" opacity="0.1"/>
    <ellipse id="Ellipse_17" data-name="Ellipse 17" cx="36.616" cy="5.618" rx="36.616" ry="5.618" transform="translate(377.641 406.843)" fill="#68a5de" opacity="0.1"/>
    <ellipse id="Ellipse_18" data-name="Ellipse 18" cx="48.432" cy="7.433" rx="48.432" ry="7.433" transform="translate(465.21 424.905)" fill="#68a5de" opacity="0.1"/>
    <ellipse id="Ellipse_19" data-name="Ellipse 19" cx="36.616" cy="5.618" rx="36.616" ry="5.618" transform="translate(0 349.309)" fill="#68a5de" opacity="0.1"/>
    <path id="Path_306" data-name="Path 306" d="M945.5,628.21s-3.311,15.431,11.429,17.262l.915-1.716S946.415,633.012,945.5,628.21Z" transform="translate(-483.585 -315.109)" fill="#68a5de"/>
    <path id="Path_307" data-name="Path 307" d="M966.679,636.549l-3.426.727-.345.078s-9.143-7.428-9.028-24a41.616,41.616,0,0,0,4.368,6.915C961.872,625.057,965.973,631.475,966.679,636.549Z" transform="translate(-487.733 -308.022)" fill="#68a5de"/>
    <path id="Path_308" data-name="Path 308" d="M973.132,632.931a2.145,2.145,0,0,1-1.846.241c-8.8-2.056-5.827-30.742-5.827-30.742.486.23,1.046,3.876,3.044,8.589C972.054,619.294,975.972,630.854,973.132,632.931Z" transform="translate(-493.025 -302.814)" fill="#68a5de"/>
    <path id="Path_309" data-name="Path 309" d="M1004.136,628.21s.575,15.431-14.17,17.262l-.915-1.716S1003.226,633.012,1004.136,628.21Z" transform="translate(-504.507 -315.109)" fill="#68a5de"/>
    <path id="Path_310" data-name="Path 310" d="M995.641,613.35c.11,16.577-11.769,24-11.769,24l-.345-.078-3.426-.727c.675-5.09,4.807-11.508,8.427-16.284A37.088,37.088,0,0,1,995.641,613.35Z" transform="translate(-500.238 -308.022)" fill="#68a5de"/>
    <path id="Path_311" data-name="Path 311" d="M981.545,631.43a5.435,5.435,0,0,1-1.962,1.5h0a3.5,3.5,0,0,1-.717.241c-2.171.523-2.924-1.046-2.8-3.709.2-4.708,3.175-12.92,5.843-19.051a23.761,23.761,0,0,1,5.524-7.982C987.424,602.43,987.293,624.766,981.545,631.43Z" transform="translate(-498.309 -302.814)" fill="#68a5de"/>
    <path id="Path_312" data-name="Path 312" d="M977.459,583.2s-9.829,34.858-1.37,40.115S979.635,586.286,977.459,583.2Z" transform="translate(-496.688 -293.643)" fill="#68a5de"/>
    <path id="Path_313" data-name="Path 313" d="M945.5,628.21s-3.311,15.431,11.429,17.262l.915-1.716S946.415,633.012,945.5,628.21Z" transform="translate(-483.585 -315.109)" opacity="0.1"/>
    <path id="Path_314" data-name="Path 314" d="M966.679,636.549l-3.426.727-.345.078s-9.143-7.428-9.028-24a41.616,41.616,0,0,0,4.368,6.915C961.872,625.057,965.973,631.475,966.679,636.549Z" transform="translate(-487.733 -308.022)" opacity="0.1"/>
    <path id="Path_315" data-name="Path 315" d="M973.132,632.931a2.145,2.145,0,0,1-1.846.241c-8.8-2.056-5.827-30.742-5.827-30.742.486.23,1.046,3.876,3.044,8.589C972.054,619.294,975.972,630.854,973.132,632.931Z" transform="translate(-493.025 -302.814)" opacity="0.1"/>
    <path id="Path_316" data-name="Path 316" d="M1004.136,628.21s.575,15.431-14.17,17.262l-.915-1.716S1003.226,633.012,1004.136,628.21Z" transform="translate(-504.507 -315.109)" opacity="0.1"/>
    <path id="Path_317" data-name="Path 317" d="M995.641,613.35c.11,16.577-11.769,24-11.769,24l-.345-.078-3.426-.727c.675-5.09,4.807-11.508,8.427-16.284A37.088,37.088,0,0,1,995.641,613.35Z" transform="translate(-500.238 -308.022)" opacity="0.1"/>
    <path id="Path_318" data-name="Path 318" d="M981.545,631.43a5.435,5.435,0,0,1-1.962,1.5h0a3.5,3.5,0,0,1-.717.241c-2.171.523-2.924-1.046-2.8-3.709.2-4.708,3.175-12.92,5.843-19.051a23.761,23.761,0,0,1,5.524-7.982C987.424,602.43,987.293,624.766,981.545,631.43Z" transform="translate(-498.309 -302.814)" opacity="0.1"/>
    <path id="Path_319" data-name="Path 319" d="M977.459,583.2s-9.829,34.858-1.37,40.115S979.635,586.286,977.459,583.2Z" transform="translate(-496.688 -293.643)" opacity="0.1"/>
    <path id="Path_320" data-name="Path 320" d="M945.713,628.21s-1.941,15.431,12.8,17.262l.915-1.716S946.629,633.012,945.713,628.21Z" transform="translate(-483.799 -315.109)" fill="#68a5de"/>
    <path id="Path_321" data-name="Path 321" d="M968.079,636.549l-3.426.727-.345.078s-10.514-7.428-10.4-24c0,0,2.694,2.888,5.754,6.915C963.262,625.057,967.379,631.475,968.079,636.549Z" transform="translate(-487.747 -308.022)" fill="#68a5de"/>
    <path id="Path_322" data-name="Path 322" d="M973.312,642.854l-3.426.727c-3.248-2.851-4.54-10.3-5.006-17.011C968.495,631.361,972.611,637.78,973.312,642.854Z" transform="translate(-492.98 -314.326)" opacity="0.1"/>
    <path id="Path_323" data-name="Path 323" d="M974.839,632.931a2.145,2.145,0,0,1-1.846.241c-8.8-2.056-7.2-30.742-7.2-30.742.487.23,2.391,3.876,4.415,8.589C973.762,619.294,977.664,630.854,974.839,632.931Z" transform="translate(-493.362 -302.814)" fill="#68a5de"/>
    <path id="Path_324" data-name="Path 324" d="M1005.39,628.21s1.946,15.431-12.8,17.262l-.91-1.716S1004.48,633.012,1005.39,628.21Z" transform="translate(-505.761 -315.109)" fill="#68a5de"/>
    <path id="Path_325" data-name="Path 325" d="M996.89,613.35c.11,16.577-10.4,24-10.4,24l-.345-.078-3.426-.727c.68-5.09,4.807-11.508,8.427-16.284C994.2,616.237,996.89,613.35,996.89,613.35Z" transform="translate(-501.488 -308.022)" fill="#68a5de"/>
    <path id="Path_326" data-name="Path 326" d="M991.147,626.57c-.439,6.277-1.569,13.15-4.368,16.372a5.236,5.236,0,0,1-.633.638l-3.426-.727C983.39,637.78,987.527,631.361,991.147,626.57Z" transform="translate(-501.488 -314.326)" opacity="0.1"/>
    <path id="Path_327" data-name="Path 327" d="M984.16,631.43a5.393,5.393,0,0,1-1.962,1.5h0a3.653,3.653,0,0,1-.722.241c-2.166.523-2.924-1.046-2.8-3.709.2-4.708,3.175-12.92,5.843-19.051,1.92-4.415,3.662-7.763,4.153-7.982C988.669,602.43,989.914,624.766,984.16,631.43Z" transform="translate(-499.554 -302.814)" fill="#68a5de"/>
    <path id="Path_328" data-name="Path 328" d="M978.494,640.781a2.412,2.412,0,0,1-1.391-.445c-4.143-2.579-4.227-12.261-3.238-21.446C977.416,627.144,981.318,638.7,978.494,640.781Z" transform="translate(-497.016 -310.664)" opacity="0.1"/>
    <path id="Path_329" data-name="Path 329" d="M984.172,638.708c-.476,1.046-1.119,1.569-1.961,1.5h0a2.747,2.747,0,0,1-1.182-.445,6.277,6.277,0,0,1-2.338-3.023c.2-4.708,3.175-12.92,5.843-19.051C985.48,626.221,985.794,635.219,984.172,638.708Z" transform="translate(-499.566 -310.091)" opacity="0.1"/>
    <path id="Path_330" data-name="Path 330" d="M978.415,583.2s-8.453,34.858,0,40.115S980.591,586.286,978.415,583.2Z" transform="translate(-497.643 -293.643)" fill="#68a5de"/>
    <path id="Path_331" data-name="Path 331" d="M918.048,626.99h-35.2v5.827h5.367l.136.685,2.15,11.314h20.463l2.15-11.314.131-.685h4.8Z" transform="translate(-421.045 -299.028)" fill="#4b4770"/>
    <path id="Path_332" data-name="Path 332" d="M918.048,626.99h-35.2v5.827h5.367l.136.685,2.15,11.314h20.463l2.15-11.314.131-.685h4.8Z" transform="translate(-421.045 -299.028)" opacity="0.1"/>
    <path id="Path_333" data-name="Path 333" d="M920.8,633.54l-.586,3.086-2.155,11.314H897.6l-2.15-11.314-.591-3.086Z" transform="translate(-426.773 -302.152)" fill="#4b4770"/>
    <path id="Path_334" data-name="Path 334" d="M920.8,633.54l-.586,3.086H895.451l-.591-3.086Z" transform="translate(-426.773 -302.152)" opacity="0.1"/>
    <rect id="Rectangle_63" data-name="Rectangle 63" width="35.198" height="5.827" transform="translate(463.175 327.962)" fill="#4b4770"/>
    <path id="Path_335" data-name="Path 335" d="M142.127,587.251a8.985,8.985,0,0,0-1.193,2.244c-.073.194-.146.419-.22.633a1.931,1.931,0,0,0-.413-.141,5.782,5.782,0,0,0-1.867-.162c0-.241.031-.523.037-.769.078-2.757-.246-6.6-2.877-4.969-2.521,1.569-.722,4.185.9,5.859.141.146.282.282.418.413-1.486,1.046-1.768,3.52-2.014,6.089s-2.427,5.377-3.876,6.978c-.146.162-.277.309-.408.445a5.283,5.283,0,0,0-4.185-1.083c-.058-.225-.12-.46-.194-.711-1.2-4.253-3.625-11.576-6.732-13.145.131-.162.267-.33.408-.523,1.318-1.726,2.8-4.289.612-4.943s-2.391,2.223-2.27,4.378c0,.267.042.523.063.764a3.212,3.212,0,0,0-2.286,1.109l-.34-.4c-1.778-2.092-5.037-5.419-6.026-2.9-.915,2.338,1.951,5.383,3.97,7.145l.126.11c-1.355,5.5,4.561,9.986,7.747,11.942l.413.256c-4.394,5.173-7.109,14.882-7.109,14.882l12.308,2.2s8.155-7.041,7.109-13.647h.084c8.155-1.637,10.007-10.331,8.741-15.488l.141-.063a9.259,9.259,0,0,0,3.777-2.851C149.252,587.716,144.471,584.139,142.127,587.251Z" transform="translate(-85.033 -293.723)" fill="#68a5de"/>
    <path id="Path_336" data-name="Path 336" d="M142.127,587.251a8.985,8.985,0,0,0-1.193,2.244c-.073.194-.146.419-.22.633a1.931,1.931,0,0,0-.413-.141,5.782,5.782,0,0,0-1.867-.162c0-.241.031-.523.037-.769.078-2.757-.246-6.6-2.877-4.969-2.521,1.569-.722,4.185.9,5.859.141.146.282.282.418.413-1.486,1.046-1.768,3.52-2.014,6.089s-2.427,5.377-3.876,6.978c-.146.162-.277.309-.408.445a5.283,5.283,0,0,0-4.185-1.083c-.058-.225-.12-.46-.194-.711-1.2-4.253-3.625-11.576-6.732-13.145.131-.162.267-.33.408-.523,1.318-1.726,2.8-4.289.612-4.943s-2.391,2.223-2.27,4.378c0,.267.042.523.063.764a3.212,3.212,0,0,0-2.286,1.109l-.34-.4c-1.778-2.092-5.037-5.419-6.026-2.9-.915,2.338,1.951,5.383,3.97,7.145l.126.11c-1.355,5.5,4.561,9.986,7.747,11.942l.413.256c-4.394,5.173-7.109,14.882-7.109,14.882l12.308,2.2s8.155-7.041,7.109-13.647h.084c8.155-1.637,10.007-10.331,8.741-15.488l.141-.063a9.259,9.259,0,0,0,3.777-2.851C149.252,587.716,144.471,584.139,142.127,587.251Z" transform="translate(-85.033 -293.723)" opacity="0.1"/>
    <path id="Path_337" data-name="Path 337" d="M118.319,592.721l-1.438,4.185s-.8-.565-1.81-1.454c-2.019-1.763-4.886-4.807-3.97-7.145.989-2.516,4.247.805,6.026,2.9C117.843,592.073,118.319,592.721,118.319,592.721Z" transform="translate(-85.715 -295.647)" fill="#68a5de"/>
    <path id="Path_338" data-name="Path 338" d="M129.325,588.41a20.352,20.352,0,0,1-1.4,1.648,22.076,22.076,0,0,1-.256-2.213c-.12-2.155.11-5.016,2.27-4.378S130.643,586.674,129.325,588.41Z" transform="translate(-93.687 -293.727)" fill="#68a5de"/>
    <path id="Path_339" data-name="Path 339" d="M162.565,589.356c-.042,1.386-.178,2.5-.178,2.5a17.475,17.475,0,0,1-1.794-1.606c-1.627-1.684-3.426-4.289-.9-5.859C162.319,582.76,162.643,586.615,162.565,589.356Z" transform="translate(-108.373 -294.024)" fill="#68a5de"/>
    <path id="Path_340" data-name="Path 340" d="M176.437,593.323a9.258,9.258,0,0,1-3.777,2.851,10.143,10.143,0,0,1-1.266.46l-1.695-2.38a17.286,17.286,0,0,1,.7-2.312,8.988,8.988,0,0,1,1.193-2.244C173.937,586.586,178.718,590.163,176.437,593.323Z" transform="translate(-113.746 -296.17)" fill="#68a5de"/>
    <path id="Path_341" data-name="Path 341" d="M120.906,594.73c.717.837,1.193,1.486,1.193,1.486L120.66,600.4s-.8-.565-1.81-1.454a8.213,8.213,0,0,1,1.622-3.7C120.613,595.08,120.764,594.9,120.906,594.73Z" transform="translate(-89.495 -299.141)" opacity="0.1"/>
    <path id="Path_342" data-name="Path 342" d="M129.348,592.485a20.352,20.352,0,0,1-1.4,1.648,22.082,22.082,0,0,1-.256-2.213A2.856,2.856,0,0,1,129.348,592.485Z" transform="translate(-93.71 -297.801)" opacity="0.1"/>
    <path id="Path_343" data-name="Path 343" d="M132.132,609.86l-3.583,1.569s-.779-.377-1.9-1.078c-3.761-2.312-11.32-8.134-6.277-15s9.3,5.445,10.985,11.466C131.86,608.626,132.132,609.86,132.132,609.86Z" transform="translate(-89.417 -298.475)" fill="#68a5de"/>
    <path id="Path_344" data-name="Path 344" d="M162.56,595.129a2.95,2.95,0,0,1,1.972-.889c-.042,1.386-.178,2.5-.178,2.5a17.47,17.47,0,0,1-1.794-1.606Z" transform="translate(-110.341 -298.908)" opacity="0.1"/>
    <path id="Path_345" data-name="Path 345" d="M172.661,599.312a10.133,10.133,0,0,1-1.266.46l-1.695-2.38a17.29,17.29,0,0,1,.7-2.312C171.494,595.718,172.3,597.308,172.661,599.312Z" transform="translate(-113.746 -299.308)" opacity="0.1"/>
    <path id="Path_346" data-name="Path 346" d="M151.821,615.138l-.6.1c-11.994,1.82-3.955-4.65-3.955-4.65s.523-.523,1.271-1.308c1.449-1.6,3.625-4.394,3.876-6.978.377-3.887.811-7.532,5.4-6.46C162.314,596.883,163.178,612.863,151.821,615.138Z" transform="translate(-101.788 -299.583)" fill="#68a5de"/>
    <rect id="Rectangle_64" data-name="Rectangle 64" width="22.916" height="6.026" transform="translate(26.892 345.418)" fill="#d4dfec"/>
    <rect id="Rectangle_65" data-name="Rectangle 65" width="29.941" height="21.028" transform="translate(23.251 325.828)" fill="#d4dfec"/>
    <rect id="Rectangle_66" data-name="Rectangle 66" width="22.916" height="6.026" transform="translate(26.892 345.418)" opacity="0.1"/>
    <rect id="Rectangle_67" data-name="Rectangle 67" width="29.941" height="21.028" transform="translate(23.251 325.828)" opacity="0.1"/>
    <rect id="Rectangle_68" data-name="Rectangle 68" width="22.916" height="6.026" transform="translate(28.398 345.418)" fill="#d4dfec"/>
    <path id="Path_347" data-name="Path 347" d="M138.608,619.13c.523,1.8.779,3.034.779,3.034l-3.583,1.569s-.779-.377-1.9-1.078A9.214,9.214,0,0,1,138.608,619.13Z" transform="translate(-96.672 -310.778)" opacity="0.1"/>
    <path id="Path_348" data-name="Path 348" d="M151.821,627.563l-.6.1c-11.994,1.82-3.955-4.65-3.955-4.65s.523-.523,1.271-1.308A7.933,7.933,0,0,1,151.821,627.563Z" transform="translate(-101.788 -312.009)" opacity="0.1"/>
    <path id="Path_349" data-name="Path 349" d="M121.1,638.356s6.716-24.062,16.137-16.634-3.829,18.831-3.829,18.831Z" transform="translate(-90.568 -311.336)" fill="#68a5de"/>
    <circle id="Ellipse_20" data-name="Ellipse 20" cx="0.753" cy="0.753" r="0.753" transform="translate(33.169 299.904)" opacity="0.1"/>
    <circle id="Ellipse_21" data-name="Ellipse 21" cx="0.753" cy="0.753" r="0.753" transform="translate(33.106 303.419)" opacity="0.1"/>
    <circle id="Ellipse_22" data-name="Ellipse 22" cx="0.753" cy="0.753" r="0.753" transform="translate(54.955 300.595)" opacity="0.1"/>
    <circle id="Ellipse_23" data-name="Ellipse 23" cx="0.753" cy="0.753" r="0.753" transform="translate(37.374 318.61)" opacity="0.1"/>
    <circle id="Ellipse_24" data-name="Ellipse 24" cx="0.753" cy="0.753" r="0.753" transform="translate(53.386 306.432)" opacity="0.1"/>
    <circle id="Ellipse_25" data-name="Ellipse 25" cx="0.753" cy="0.753" r="0.753" transform="translate(45.602 314.216)" opacity="0.1"/>
    <circle id="Ellipse_26" data-name="Ellipse 26" cx="0.753" cy="0.753" r="0.753" transform="translate(35.742 301.41)" opacity="0.1"/>
    <circle id="Ellipse_27" data-name="Ellipse 27" cx="0.753" cy="0.753" r="0.753" transform="translate(52.884 302.854)" opacity="0.1"/>
    <circle id="Ellipse_28" data-name="Ellipse 28" cx="0.753" cy="0.753" r="0.753" transform="translate(50.31 308.692)" opacity="0.1"/>
    <circle id="Ellipse_29" data-name="Ellipse 29" cx="0.753" cy="0.753" r="0.753" transform="translate(42.401 318.045)" opacity="0.1"/>
    <circle id="Ellipse_30" data-name="Ellipse 30" cx="0.753" cy="0.753" r="0.753" transform="translate(40.769 314.341)" opacity="0.1"/>
    <circle id="Ellipse_31" data-name="Ellipse 31" cx="0.753" cy="0.753" r="0.753" transform="translate(36.872 305.993)" opacity="0.1"/>
    <rect id="Rectangle_69" data-name="Rectangle 69" width="22.916" height="2.202" transform="translate(28.398 345.418)" opacity="0.1"/>
    <rect id="Rectangle_70" data-name="Rectangle 70" width="29.941" height="21.028" transform="translate(24.758 325.828)" fill="#d4dfec"/>
    <circle id="Ellipse_32" data-name="Ellipse 32" cx="0.753" cy="0.753" r="0.753" transform="translate(43.406 321.434)" opacity="0.1"/>
    <circle id="Ellipse_33" data-name="Ellipse 33" cx="0.753" cy="0.753" r="0.753" transform="translate(38.886 322.376)" opacity="0.1"/>
  </g>
</svg>
