<svg xmlns="http://www.w3.org/2000/svg" xmlns:xlink="http://www.w3.org/1999/xlink" width="500" zoomAndPan="magnify" viewBox="0 0 375 374.999991" height="500" preserveAspectRatio="xMidYMid meet" version="1.0"><defs><g><g id="id1"/></g><clipPath id="id2"><path d="M 194 172.292969 L 221 172.292969 L 221 209.792969 L 194 209.792969 Z M 194 172.292969 " clip-rule="nonzero"/></clipPath></defs><g fill="rgb(6.669617%, 16.468811%, 27.449036%)" fill-opacity="1"><g transform="translate(67.171992, 204.438531)"><g><path d="M 2.015625 -0.75 L 5.046875 -1.515625 L 5.046875 -33.765625 L 2.015625 -34.515625 L 2.015625 -35.28125 L 8.5625 -35.28125 C 11.59375 -35.28125 13.109375 -33.765625 13.109375 -30.734375 L 13.109375 -13.109375 L 22.421875 -22.921875 L 18.640625 -24.4375 L 18.640625 -25.203125 L 28.21875 -25.203125 L 28.21875 -24.4375 L 24.1875 -22.921875 L 18.390625 -16.875 L 28.21875 -1.515625 L 30.734375 -0.75 L 30.734375 0 L 24.1875 0 C 22.570312 0 21.257812 -0.347656 20.25 -1.046875 C 19.25 -1.753906 18.296875 -2.832031 17.390625 -4.28125 L 13.109375 -11.09375 L 13.109375 -1.515625 L 16.125 -0.75 L 16.125 0 L 2.015625 0 Z M 2.015625 -0.75 "/></g></g></g><g fill="rgb(6.669617%, 16.468811%, 27.449036%)" fill-opacity="1"><g transform="translate(101.034739, 204.438531)"><g><path d="M 2.015625 -0.75 L 5.046875 -1.515625 L 5.046875 -23.6875 L 2.015625 -24.4375 L 2.015625 -25.203125 L 8.5625 -25.203125 C 11.59375 -25.203125 13.109375 -23.6875 13.109375 -20.65625 L 13.109375 -1.515625 L 16.125 -0.75 L 16.125 0 L 2.015625 0 Z M 8.578125 -28.21875 C 7.566406 -28.21875 6.722656 -28.550781 6.046875 -29.21875 C 5.378906 -29.894531 5.046875 -30.738281 5.046875 -31.75 C 5.046875 -32.757812 5.378906 -33.597656 6.046875 -34.265625 C 6.722656 -34.941406 7.566406 -35.28125 8.578125 -35.28125 C 9.578125 -35.28125 10.410156 -34.941406 11.078125 -34.265625 C 11.753906 -33.597656 12.09375 -32.757812 12.09375 -31.75 C 12.09375 -30.738281 11.753906 -29.894531 11.078125 -29.21875 C 10.410156 -28.550781 9.578125 -28.21875 8.578125 -28.21875 Z M 8.578125 -28.21875 "/></g></g></g><g fill="rgb(6.669617%, 16.468811%, 27.449036%)" fill-opacity="1"><g transform="translate(121.795914, 204.438531)"><g><path d="M 12.34375 0.75 C 10.363281 0.75 8.597656 0.238281 7.046875 -0.78125 C 5.503906 -1.800781 4.28125 -3.3125 3.375 -5.3125 C 2.46875 -7.3125 2.015625 -9.738281 2.015625 -12.59375 C 2.015625 -16.894531 3.015625 -20.195312 5.015625 -22.5 C 7.015625 -24.800781 9.710938 -25.953125 13.109375 -25.953125 C 14.710938 -25.953125 16.117188 -25.613281 17.328125 -24.9375 C 17.835938 -24.707031 18.359375 -24.375 18.890625 -23.9375 L 18.890625 -33.765625 L 15.875 -34.515625 L 15.875 -35.28125 L 22.421875 -35.28125 C 25.441406 -35.28125 26.953125 -33.765625 26.953125 -30.734375 L 26.953125 -1.515625 L 29.984375 -0.75 L 29.984375 0 L 25.453125 0 C 23.429688 0 21.867188 -0.617188 20.765625 -1.859375 C 20.296875 -2.367188 19.925781 -3.007812 19.65625 -3.78125 C 19.21875 -2.9375 18.660156 -2.179688 17.984375 -1.515625 C 16.472656 -0.00390625 14.59375 0.75 12.34375 0.75 Z M 14.359375 -1.015625 C 15.597656 -1.015625 16.722656 -1.6875 17.734375 -3.03125 C 18.109375 -3.53125 18.492188 -4.203125 18.890625 -5.046875 L 18.890625 -22.421875 C 18.523438 -22.796875 18.140625 -23.132812 17.734375 -23.4375 C 16.828125 -24.101562 15.957031 -24.4375 15.125 -24.4375 C 13.675781 -24.4375 12.554688 -23.597656 11.765625 -21.921875 C 10.972656 -20.242188 10.578125 -17.132812 10.578125 -12.59375 C 10.578125 -8.257812 10.9375 -5.242188 11.65625 -3.546875 C 12.382812 -1.859375 13.285156 -1.015625 14.359375 -1.015625 Z M 14.359375 -1.015625 "/></g></g></g><g fill="rgb(6.669617%, 16.468811%, 27.449036%)" fill-opacity="1"><g transform="translate(156.666477, 204.438531)"><g><path d="M 1.515625 9.328125 L 4.53125 8.5625 L 4.53125 -23.6875 L 1.515625 -24.4375 L 1.515625 -25.203125 L 6.046875 -25.203125 C 8.023438 -25.203125 9.585938 -24.5625 10.734375 -23.28125 C 11.171875 -22.78125 11.539062 -22.160156 11.84375 -21.421875 C 12.28125 -22.285156 12.832031 -23.039062 13.5 -23.6875 C 15.007812 -25.195312 16.894531 -25.953125 19.15625 -25.953125 C 21.132812 -25.953125 22.894531 -25.4375 24.4375 -24.40625 C 25.976562 -23.382812 27.203125 -21.875 28.109375 -19.875 C 29.023438 -17.875 29.484375 -15.445312 29.484375 -12.59375 C 29.484375 -8.289062 28.484375 -4.988281 26.484375 -2.6875 C 24.484375 -0.394531 21.785156 0.75 18.390625 0.75 C 16.773438 0.75 15.363281 0.414062 14.15625 -0.25 C 13.65625 -0.488281 13.132812 -0.828125 12.59375 -1.265625 L 12.59375 8.5625 L 15.625 9.328125 L 15.625 10.078125 L 1.515625 10.078125 Z M 16.375 -0.75 C 17.820312 -0.75 18.9375 -1.585938 19.71875 -3.265625 C 20.507812 -4.953125 20.90625 -8.0625 20.90625 -12.59375 C 20.90625 -16.925781 20.546875 -19.941406 19.828125 -21.640625 C 19.109375 -23.335938 18.210938 -24.1875 17.140625 -24.1875 C 15.859375 -24.1875 14.710938 -23.515625 13.703125 -22.171875 C 13.265625 -21.597656 12.894531 -20.925781 12.59375 -20.15625 L 12.59375 -2.765625 C 13.0625 -2.296875 13.429688 -1.960938 13.703125 -1.765625 C 14.609375 -1.085938 15.5 -0.75 16.375 -0.75 Z M 16.375 -0.75 "/></g></g></g><g fill="rgb(6.669617%, 16.468811%, 27.449036%)" fill-opacity="1"><g transform="translate(191.777452, 204.438531)"><g/></g></g><g fill="rgb(6.669617%, 16.468811%, 27.449036%)" fill-opacity="1"><g transform="translate(209.51519, 204.438531)"><g/></g></g><g fill="rgb(6.669617%, 16.468811%, 27.449036%)" fill-opacity="1"><g transform="translate(227.25011, 204.438531)"><g><path d="M 2.015625 -0.75 L 5.046875 -1.515625 L 5.046875 -23.6875 L 2.015625 -24.4375 L 2.015625 -25.203125 L 8.5625 -25.203125 C 11.59375 -25.203125 13.109375 -23.6875 13.109375 -20.65625 L 13.109375 -1.515625 L 16.125 -0.75 L 16.125 0 L 2.015625 0 Z M 8.578125 -28.21875 C 7.566406 -28.21875 6.722656 -28.550781 6.046875 -29.21875 C 5.378906 -29.894531 5.046875 -30.738281 5.046875 -31.75 C 5.046875 -32.757812 5.378906 -33.597656 6.046875 -34.265625 C 6.722656 -34.941406 7.566406 -35.28125 8.578125 -35.28125 C 9.578125 -35.28125 10.410156 -34.941406 11.078125 -34.265625 C 11.753906 -33.597656 12.09375 -32.757812 12.09375 -31.75 C 12.09375 -30.738281 11.753906 -29.894531 11.078125 -29.21875 C 10.410156 -28.550781 9.578125 -28.21875 8.578125 -28.21875 Z M 8.578125 -28.21875 "/></g></g></g><g fill="rgb(6.669617%, 16.468811%, 27.449036%)" fill-opacity="1"><g transform="translate(248.011285, 204.438531)"><g><path d="M 2.015625 -0.75 L 5.046875 -1.515625 L 5.046875 -23.6875 L 2.015625 -24.4375 L 2.015625 -25.203125 L 6.546875 -25.203125 C 8.535156 -25.203125 10.097656 -24.5625 11.234375 -23.28125 C 11.671875 -22.78125 12.039062 -22.160156 12.34375 -21.421875 C 12.8125 -22.285156 13.367188 -23.039062 14.015625 -23.6875 C 15.523438 -25.195312 17.40625 -25.953125 19.65625 -25.953125 C 21.53125 -25.953125 23.210938 -25.554688 24.703125 -24.765625 C 26.203125 -23.972656 27.375 -22.9375 28.21875 -21.65625 C 29.0625 -20.382812 29.484375 -19.046875 29.484375 -17.640625 L 29.484375 -1.515625 L 32.5 -0.75 L 32.5 0 L 25.953125 0 C 22.929688 0 21.421875 -1.507812 21.421875 -4.53125 L 21.421875 -17.640625 C 21.421875 -19.753906 21.039062 -21.375 20.28125 -22.5 C 19.53125 -23.625 18.648438 -24.1875 17.640625 -24.1875 C 16.359375 -24.1875 15.210938 -23.515625 14.203125 -22.171875 C 13.773438 -21.597656 13.410156 -20.925781 13.109375 -20.15625 L 13.109375 -1.515625 L 16.125 -0.75 L 16.125 0 L 2.015625 0 Z M 2.015625 -0.75 "/></g></g></g><g fill="rgb(6.669617%, 16.468811%, 27.449036%)" fill-opacity="1"><g transform="translate(285.149423, 204.438531)"><g><path d="M 15.125 0.75 C 12.90625 0.75 10.976562 0.347656 9.34375 -0.453125 C 7.71875 -1.253906 6.46875 -2.359375 5.59375 -3.765625 C 4.71875 -5.179688 4.28125 -6.78125 4.28125 -8.5625 L 4.28125 -23.9375 L 0.75 -23.9375 L 0.75 -25.203125 L 4.28125 -25.203125 L 4.28125 -27.71875 C 4.28125 -30.738281 5.789062 -32.25 8.8125 -32.25 L 12.34375 -32.25 L 12.34375 -25.203125 L 19.40625 -25.203125 L 19.40625 -23.9375 L 12.34375 -23.9375 L 12.34375 -8.5625 C 12.34375 -5.476562 12.660156 -3.363281 13.296875 -2.21875 C 13.941406 -1.070312 14.882812 -0.5 16.125 -0.5 C 17.332031 -0.5 18.390625 -1.085938 19.296875 -2.265625 C 20.203125 -3.441406 20.65625 -5.039062 20.65625 -7.0625 L 21.921875 -7.0625 C 21.921875 -4.570312 21.296875 -2.644531 20.046875 -1.28125 C 18.804688 0.0703125 17.164062 0.75 15.125 0.75 Z M 15.125 0.75 "/></g></g></g><path fill="rgb(6.669617%, 16.468811%, 27.449036%)" d="M 209.960938 184.898438 C 212.355469 186.335938 211.699219 189.367188 209.179688 190.15625 C 207.992188 190.53125 205.910156 190.808594 204.765625 190.257812 C 202.925781 189.371094 203.390625 186.277344 204.222656 184.898438 C 205.324219 183.082031 208.15625 183.359375 209.621094 184.648438 C 210.402344 185.335938 211.554688 184.191406 210.769531 183.5 C 208.753906 181.726562 204.996094 181.207031 203.207031 183.523438 C 201.703125 185.46875 201.121094 189.558594 203.277344 191.304688 C 205.269531 192.917969 209.761719 192.265625 211.601562 190.664062 C 213.996094 188.582031 213.367188 185.054688 210.78125 183.496094 C 209.882812 182.957031 209.066406 184.359375 209.960938 184.898438 Z M 209.960938 184.898438 " fill-opacity="1" fill-rule="nonzero"/><g clip-path="url(#id2)"><path fill="rgb(6.669617%, 16.468811%, 27.449036%)" d="M 219 184.738281 C 219.425781 188.980469 216.683594 193.019531 214.75 196.640625 C 212.539062 200.773438 209.960938 204.601562 206.664062 207.953125 C 207.089844 208.007812 207.515625 208.0625 207.9375 208.117188 C 205.804688 204.414062 203.316406 200.953125 200.851562 197.46875 C 197.988281 193.421875 194.855469 189.472656 195.800781 184.175781 C 196.703125 179.140625 201.574219 174.722656 206.757812 174.5625 C 211.617188 174.414062 219.695312 179.289062 219.171875 184.957031 C 219.074219 185.996094 220.699219 185.988281 220.792969 184.957031 C 221.027344 182.433594 220.089844 180.457031 218.351562 178.652344 C 216.644531 176.886719 214.214844 174.585938 211.917969 173.601562 C 207.152344 171.554688 201.539062 173.453125 198.074219 176.914062 C 187.394531 187.59375 201.078125 199.460938 206.539062 208.933594 C 206.796875 209.386719 207.445312 209.472656 207.8125 209.101562 C 211.496094 205.355469 214.285156 201.050781 216.707031 196.40625 C 218.621094 192.730469 221.054688 189.035156 220.621094 184.738281 C 220.519531 183.710938 218.894531 183.699219 219 184.738281 Z M 219 184.738281 " fill-opacity="1" fill-rule="nonzero"/></g></svg>