<svg id="undraw_quality_time_wiyl" xmlns="http://www.w3.org/2000/svg" width="634.488" height="482.627" viewBox="0 0 634.488 482.627">
  <rect id="Rectangle_72" data-name="Rectangle 72" width="634.331" height="46.85" transform="translate(0.157 435.777)" fill="#e6e6e6"/>
  <path id="Path_351" data-name="Path 351" d="M633.608,606.436H0V604.87H633.891Z" transform="translate(0 -170.619)" fill="#3f3d56"/>
  <path id="Path_352" data-name="Path 352" d="M709.589,294.207V432.9H348.92V294.207A180.336,180.336,0,0,1,518.846,114.17q5.161-.3,10.409-.3c1.993,0,3.979.03,5.949.1a179.717,179.717,0,0,1,121.564,52.717c.974.974,1.934,1.956,2.893,2.952A180.224,180.224,0,0,1,709.589,294.207Z" transform="translate(-211.932 -113.873)" fill="#e6e6e6"/>
  <path id="Path_353" data-name="Path 353" d="M601.968,113.977V432.9h-16.36V114.17q5.165-.3,10.411-.3C598.012,113.873,600,113.9,601.968,113.977Z" transform="translate(-278.697 -113.873)" fill="#fff"/>
  <path id="Path_354" data-name="Path 354" d="M687.7,207.921H399.148a180.88,180.88,0,0,1,13.869-16.36H673.828a180.882,180.882,0,0,1,13.87,16.36Z" transform="translate(-226.101 -135.787)" fill="#fff"/>
  <rect id="Rectangle_73" data-name="Rectangle 73" width="127.826" height="216.402" transform="translate(342.383 118.984)" fill="#fff"/>
  <rect id="Rectangle_74" data-name="Rectangle 74" width="19.335" height="19.335" transform="translate(367.624 155.543)" fill="#e6e6e6"/>
  <rect id="Rectangle_75" data-name="Rectangle 75" width="19.335" height="19.335" transform="translate(398.775 155.543)" fill="#e6e6e6"/>
  <rect id="Rectangle_76" data-name="Rectangle 76" width="19.335" height="19.335" transform="translate(429.926 155.543)" fill="#e6e6e6"/>
  <rect id="Rectangle_77" data-name="Rectangle 77" width="19.335" height="19.335" transform="translate(368.161 199.584)" fill="#e6e6e6"/>
  <rect id="Rectangle_78" data-name="Rectangle 78" width="19.335" height="19.335" transform="translate(399.312 199.584)" fill="#e6e6e6"/>
  <rect id="Rectangle_79" data-name="Rectangle 79" width="19.335" height="19.335" transform="translate(430.463 199.584)" fill="#e6e6e6"/>
  <rect id="Rectangle_80" data-name="Rectangle 80" width="19.335" height="19.335" transform="translate(368.698 243.626)" fill="#e6e6e6"/>
  <rect id="Rectangle_81" data-name="Rectangle 81" width="19.335" height="19.335" transform="translate(399.85 243.626)" fill="#e6e6e6"/>
  <rect id="Rectangle_82" data-name="Rectangle 82" width="19.335" height="19.335" transform="translate(431 243.626)" fill="#e6e6e6"/>
  <rect id="Rectangle_83" data-name="Rectangle 83" width="19.335" height="19.335" transform="translate(369.235 287.667)" fill="#e6e6e6"/>
  <rect id="Rectangle_84" data-name="Rectangle 84" width="19.335" height="19.335" transform="translate(400.387 287.667)" fill="#e6e6e6"/>
  <rect id="Rectangle_85" data-name="Rectangle 85" width="19.335" height="19.335" transform="translate(431.537 287.667)" fill="#e6e6e6"/>
  <rect id="Rectangle_86" data-name="Rectangle 86" width="19.335" height="19.335" transform="translate(369.235 287.667)" fill="#e6e6e6"/>
  <rect id="Rectangle_87" data-name="Rectangle 87" width="19.335" height="19.335" transform="translate(400.387 287.667)" fill="#e6e6e6"/>
  <rect id="Rectangle_88" data-name="Rectangle 88" width="19.335" height="19.335" transform="translate(431.537 287.667)" fill="#e6e6e6"/>
  <circle id="Ellipse_34" data-name="Ellipse 34" cx="26.649" cy="26.649" r="26.649" transform="translate(153.211 221.726)" fill="#fff"/>
  <path id="Path_355" data-name="Path 355" d="M250.084,345.962h.073l1.318,75.554h-2.782Z" transform="translate(-70.15 -97.587)" fill="#fff"/>
  <rect id="Rectangle_89" data-name="Rectangle 89" width="1.318" height="4.978" transform="translate(184.171 288.363) rotate(62.234)" fill="#fff"/>
  <circle id="Ellipse_35" data-name="Ellipse 35" cx="40.524" cy="40.524" r="40.524" transform="translate(217.683 168.511)" fill="#fff"/>
  <path id="Path_356" data-name="Path 356" d="M358.982,291.166h.111l2,114.893h-4.23Z" transform="translate(-100.664 -82.131)" fill="#fff"/>
  <rect id="Rectangle_90" data-name="Rectangle 90" width="2.004" height="7.57" transform="translate(264.763 269.844) rotate(62.234)" fill="#fff"/>
  <path id="Path_357" data-name="Path 357" d="M397.325,348.959l6.846-5.475c-5.318-.587-7.5,2.314-8.4,4.609-4.155-1.725-8.678.536-8.678.536l13.7,4.973A10.365,10.365,0,0,0,397.325,348.959Z" transform="translate(-222.701 -178.619)" fill="#fff"/>
  <path id="Path_358" data-name="Path 358" d="M497.8,286.809l6.846-5.475c-5.318-.587-7.5,2.314-8.4,4.609-4.155-1.725-8.678.536-8.678.536l13.7,4.973a10.366,10.366,0,0,0-3.468-4.642Z" transform="translate(-251.043 -161.088)" fill="#fff"/>
  <path id="Path_359" data-name="Path 359" d="M459.475,345.851l6.846-5.475c-5.318-.587-7.5,2.314-8.4,4.609-4.155-1.725-8.678.536-8.678.536l13.7,4.973A10.365,10.365,0,0,0,459.475,345.851Z" transform="translate(-240.232 -177.742)" fill="#fff"/>
  <rect id="Rectangle_91" data-name="Rectangle 91" width="398.595" height="32.72" transform="translate(118.025 302.665)" fill="#e6e6e6"/>
  <path id="Path_360" data-name="Path 360" d="M216.662,627.555s-80.627-37.117-52.3-62.856S216.662,627.555,216.662,627.555Z" transform="translate(-158.171 -239.717)" fill="#e6e6e6"/>
  <path id="Path_361" data-name="Path 361" d="M232.8,620.525S195.738,498.76,250.309,504.583,232.8,620.525,232.8,620.525Z" transform="translate(-175.709 -224.026)" fill="#e6e6e6"/>
  <path id="Path_362" data-name="Path 362" d="M199.991,651.116l1.555,20.369.025.352a93.578,93.578,0,0,0,.481,9.524c2.111,20.776,11.184,30.244,21.788,30.244s19.282-9.468,21.393-30.244a93.581,93.581,0,0,0,.481-9.524l.012-.284.006-.068,1.562-20.369Z" transform="translate(-169.923 -265.416)" fill="#e6e6e6"/>
  <path id="Path_363" data-name="Path 363" d="M246.344,679.488l-.006.068-.012.284a93.59,93.59,0,0,1-.481,9.524H202.663a93.577,93.577,0,0,1-.481-9.524l-.025-.352Z" transform="translate(-170.534 -273.419)" fill="#fff"/>
  <path id="Path_364" data-name="Path 364" d="M968.085,627.555s-80.627-37.117-52.3-62.856S968.085,627.555,968.085,627.555Z" transform="translate(-370.13 -239.717)" fill="#e6e6e6"/>
  <path id="Path_365" data-name="Path 365" d="M984.221,620.525s-37.059-121.765,17.512-115.941S984.221,620.525,984.221,620.525Z" transform="translate(-387.668 -224.026)" fill="#e6e6e6"/>
  <path id="Path_366" data-name="Path 366" d="M951.414,651.116l1.555,20.369.025.352a93.574,93.574,0,0,0,.481,9.524c2.111,20.776,11.184,30.244,21.788,30.244s19.282-9.468,21.393-30.244a93.611,93.611,0,0,0,.481-9.524l.012-.284.006-.068,1.562-20.369Z" transform="translate(-381.882 -265.416)" fill="#e6e6e6"/>
  <path id="Path_367" data-name="Path 367" d="M997.769,679.488l-.006.068-.012.284a93.541,93.541,0,0,1-.482,9.524H954.087a93.576,93.576,0,0,1-.481-9.524l-.025-.352Z" transform="translate(-382.493 -273.419)" fill="#fff"/>
  <path id="Path_368" data-name="Path 368" d="M832.463,746.742l-5.286.621c-4.175,2.517-9.076,3.465-14.5,3.272a4.349,4.349,0,0,1-3.684-2.258h0a4.311,4.311,0,0,1,2.812-6.251l4.016-.935,9.692-9.479,5.847-10.582,8.493.974,1.768,13.441h0A10.4,10.4,0,0,1,832.463,746.742Z" transform="translate(-341.56 -285.165)" fill="#ffb8b8"/>
  <path id="Path_369" data-name="Path 369" d="M717.821,737.385,712.64,738.6c-3.861,2.977-8.622,4.477-14.036,4.9a4.349,4.349,0,0,1-3.918-1.823h0a4.31,4.31,0,0,1,2.081-6.531l3.884-1.387,8.549-10.522,4.6-11.179h8.549l3.288,13.152h0a10.4,10.4,0,0,1-7.819,12.168Z" transform="translate(-309.245 -282.609)" fill="#ffb8b8"/>
  <path id="Path_370" data-name="Path 370" d="M718.379,648.237l9.667,1.487,15.245-76.967,26.4-44.991,31.977,130.882,11.9,2.231c-1.334-73.7,5.178-166.5-9.667-177.731l-64.7,7.436-28.258,75.852Z" transform="translate(-314.051 -218.036)" fill="#2f2e41"/>
  <circle id="Ellipse_36" data-name="Ellipse 36" cx="22.309" cy="22.309" r="22.309" transform="translate(428.869 105.97)" fill="#ffb8b8"/>
  <path id="Path_371" data-name="Path 371" d="M658.806,216.395l-26.771,4.462-6.693-23.8,19.334-5.949Z" transform="translate(-176.394 -53.908)" fill="#ffb8b8"/>
  <path id="Path_372" data-name="Path 372" d="M817.551,442.586l-71.39,6.693c5.723-19.9,10.967-39.732,6.693-59.492-5.428-17.641-.189-28.131,14.129-36.439l9.667-21.566,26.028-2.975h0a56.182,56.182,0,0,1,7.974,37.153C806.944,394.087,807.946,420.188,817.551,442.586Z" transform="translate(-323.985 -174.501)" fill="#68a5de"/>
  <path id="Path_373" data-name="Path 373" d="M773.651,255.6c-7.445,1.7-15.92,4.111-16.4,6.352-7.659,1.93-13.44,6.553-14.62,13.6a4.221,4.221,0,0,0,4.234,4.895c4.165-.054,10.418-.453,14.547-2.177,11.994,7.728,14.007,27.829,8.769,41.511l8.243-.756,8.528-24.963,2.178,23.982,18.81-2.487-2.423-30.582a45.563,45.563,0,0,0-7.155-20.2,17.212,17.212,0,0,0-1.346-1.744A23.907,23.907,0,0,0,773.651,255.6Z" transform="translate(-322.975 -153.673)" fill="#2f2e41"/>
  <path id="Path_374" data-name="Path 374" d="M720.049,764.953a2.62,2.62,0,0,0,2.577,2.909l8.366.086a1.784,1.784,0,0,0,1.66-1.78h0a1.784,1.784,0,0,0-1.121-1.656l-2.468-.987-3.59-5.025H722.6a13.153,13.153,0,0,0-2.55,6.439l0,.014Z" transform="translate(-316.615 -295.707)" fill="#ffb8b8"/>
  <path id="Path_375" data-name="Path 375" d="M687.212,764.953a2.62,2.62,0,0,1-2.577,2.909l-8.366.086a1.784,1.784,0,0,1-1.66-1.78h0a1.784,1.784,0,0,1,1.121-1.656l2.468-.987,3.59-5.026h2.872a13.153,13.153,0,0,1,2.55,6.439l0,.014Z" transform="translate(-303.802 -295.707)" fill="#ffb8b8"/>
  <path id="Path_376" data-name="Path 376" d="M525.5,611.342h4.308l15.076-65.331,7.9,66.049h5.026l6.82-85.074-34.819-.359Z" transform="translate(-148.231 -148.549)" fill="#3f3d56"/>
  <path id="Path_377" data-name="Path 377" d="M656.609,583h5.743V569.357l1.307-2.613A3.721,3.721,0,0,0,660.9,561.4h0a3.721,3.721,0,0,0-4.287,3.678Z" transform="translate(-298.724 -240.098)" fill="#ffb8b8"/>
  <circle id="Ellipse_37" data-name="Ellipse 37" cx="13.282" cy="13.282" r="13.282" transform="translate(378.705 282.595)" fill="#ffb8b8"/>
  <rect id="Rectangle_92" data-name="Rectangle 92" width="13.641" height="15.794" transform="translate(400.243 318.491) rotate(180)" fill="#ffb8b8"/>
  <path id="Path_378" data-name="Path 378" d="M686.2,617.267c12.074,7.451,24.839,6.722,38.05.718l-2.872-66.767L706.3,550.5l-15.794,2.154-7.9,6.461Z" transform="translate(-306.058 -237.035)" fill="#68a5de"/>
  <path id="Path_379" data-name="Path 379" d="M505.551,483.087l15.794-12.2-5.025-22.256-9.333,17.23-2.872-2.872-8.615,6.461Z" transform="translate(-139.769 -126.547)" fill="#68a5de"/>
  <path id="Path_380" data-name="Path 380" d="M759.111,546.186l-5.023,2.784-6.612-11.931-2.41-1.652a3.721,3.721,0,0,1-.173-6.012h0a3.721,3.721,0,0,1,5.533,1.139l2.073,3.741Z" transform="translate(-323.22 -230.857)" fill="#ffb8b8"/>
  <path id="Path_381" data-name="Path 381" d="M568,455.139l19.062-10.119,10.014-5.316,1.436-8.615-6.461-6.461-7.9,5.025.718,5.743-9.333-1.436Z" transform="translate(-160.219 -119.777)" fill="#68a5de"/>
  <circle id="Ellipse_38" data-name="Ellipse 38" cx="15.794" cy="15.794" r="15.794" transform="translate(379.064 275.056)" fill="#2f2e41"/>
  <circle id="Ellipse_39" data-name="Ellipse 39" cx="7.179" cy="7.179" r="7.179" transform="translate(396.294 265.723)" fill="#2f2e41"/>
  <path id="Path_382" data-name="Path 382" d="M719.233,498.25a7.177,7.177,0,0,0,9.214-10.46,7.175,7.175,0,1,1-10.209,9.823,7.194,7.194,0,0,0,1,.637Z" transform="translate(-316.108 -219.346)" fill="#2f2e41"/>
  <path id="Path_383" data-name="Path 383" d="M774.178,480.381l.493,17.265a9.413,9.413,0,0,1-8.473,9.635h0a9.413,9.413,0,0,1-10.024-11.823l3.874-14.334L771.2,420.146l-.744-35.7,23.8-.744-4.462,40.157Z" transform="translate(-326.717 -189.987)" fill="#ffb8b8"/>
  <path id="Path_384" data-name="Path 384" d="M800.9,372.524a37.6,37.6,0,0,0-26.771,0l1.487-29.746a11.9,11.9,0,0,1,11.9-11.9h0a11.9,11.9,0,0,1,11.9,11.9Z" transform="translate(-331.874 -175.085)" fill="#68a5de"/>
</svg>
