<svg xmlns="http://www.w3.org/2000/svg" width="47.531" height="43.075" viewBox="0 0 47.531 43.075">
  <g id="_2-persons-icon" data-name="2-persons-icon" transform="translate(0 -3)">
    <path id="Path_6" data-name="Path 6" d="M18.4,23.795a10.4,10.4,0,1,1,10.4-10.4,10.4,10.4,0,0,1-10.4,10.4Zm0-19.309A8.912,8.912,0,1,0,27.309,13.4,8.912,8.912,0,0,0,18.4,4.485Z" transform="translate(-2.059 0)"/>
    <path id="Path_7" data-name="Path 7" d="M42,23.795V22.309A8.912,8.912,0,0,0,42,4.485V3a10.4,10.4,0,1,1,0,20.795Z" transform="translate(-10.808)"/>
    <path id="Path_8" data-name="Path 8" d="M31.935,52.765H.743A.743.743,0,0,1,0,52.023V45.339a16.339,16.339,0,0,1,32.677,0v6.684A.743.743,0,0,1,31.935,52.765ZM1.485,51.28H31.192V45.339a14.853,14.853,0,0,0-29.707,0Z" transform="translate(0 -6.691)"/>
    <path id="Path_9" data-name="Path 9" d="M57.6,52.765H45.713V51.28h11.14V45.339A14.853,14.853,0,0,0,42,30.485V29A16.339,16.339,0,0,1,58.339,45.339v6.684A.743.743,0,0,1,57.6,52.765Z" transform="translate(-10.808 -6.691)"/>
  </g>
</svg>
