<svg xmlns="http://www.w3.org/2000/svg" xmlns:xlink="http://www.w3.org/1999/xlink" width="380" zoomAndPan="magnify" viewBox="0 0 285 52.499999" height="70" preserveAspectRatio="xMidYMid meet" version="1.0"><defs><g><g id="id1"/></g><clipPath id="id2"><path d="M 147 14.445312 L 168 14.445312 L 168 42.675781 L 147 42.675781 Z M 147 14.445312 " clip-rule="nonzero"/></clipPath></defs><g fill="rgb(90.979004%, 94.509888%, 94.898987%)" fill-opacity="1"><g transform="translate(52.301494, 38.525617)"><g><path d="M 1.515625 -0.5625 L 3.78125 -1.140625 L 3.78125 -25.3125 L 1.515625 -25.875 L 1.515625 -26.453125 L 6.421875 -26.453125 C 8.691406 -26.453125 9.828125 -25.316406 9.828125 -23.046875 L 9.828125 -9.828125 L 16.8125 -17.1875 L 13.984375 -18.328125 L 13.984375 -18.890625 L 21.15625 -18.890625 L 21.15625 -18.328125 L 18.140625 -17.1875 L 13.796875 -12.65625 L 21.15625 -1.140625 L 23.046875 -0.5625 L 23.046875 0 L 18.140625 0 C 16.929688 0 15.945312 -0.265625 15.1875 -0.796875 C 14.425781 -1.328125 13.707031 -2.132812 13.03125 -3.21875 L 9.828125 -8.3125 L 9.828125 -1.140625 L 12.09375 -0.5625 L 12.09375 0 L 1.515625 0 Z M 1.515625 -0.5625 "/></g></g></g><g fill="rgb(90.979004%, 94.509888%, 94.898987%)" fill-opacity="1"><g transform="translate(77.684942, 38.525617)"><g><path d="M 1.515625 -0.5625 L 3.78125 -1.140625 L 3.78125 -17.75 L 1.515625 -18.328125 L 1.515625 -18.890625 L 6.421875 -18.890625 C 8.691406 -18.890625 9.828125 -17.753906 9.828125 -15.484375 L 9.828125 -1.140625 L 12.09375 -0.5625 L 12.09375 0 L 1.515625 0 Z M 6.421875 -21.15625 C 5.671875 -21.15625 5.039062 -21.40625 4.53125 -21.90625 C 4.03125 -22.414062 3.78125 -23.046875 3.78125 -23.796875 C 3.78125 -24.554688 4.03125 -25.1875 4.53125 -25.6875 C 5.039062 -26.195312 5.671875 -26.453125 6.421875 -26.453125 C 7.179688 -26.453125 7.8125 -26.195312 8.3125 -25.6875 C 8.820312 -25.1875 9.078125 -24.554688 9.078125 -23.796875 C 9.078125 -23.046875 8.820312 -22.414062 8.3125 -21.90625 C 7.8125 -21.40625 7.179688 -21.15625 6.421875 -21.15625 Z M 6.421875 -21.15625 "/></g></g></g><g fill="rgb(90.979004%, 94.509888%, 94.898987%)" fill-opacity="1"><g transform="translate(93.247707, 38.525617)"><g><path d="M 9.25 0.5625 C 7.769531 0.5625 6.445312 0.179688 5.28125 -0.578125 C 4.125 -1.347656 3.207031 -2.484375 2.53125 -3.984375 C 1.851562 -5.484375 1.515625 -7.300781 1.515625 -9.4375 C 1.515625 -12.664062 2.257812 -15.140625 3.75 -16.859375 C 5.25 -18.585938 7.273438 -19.453125 9.828125 -19.453125 C 11.035156 -19.453125 12.09375 -19.203125 13 -18.703125 C 13.375 -18.523438 13.765625 -18.273438 14.171875 -17.953125 L 14.171875 -25.3125 L 11.90625 -25.875 L 11.90625 -26.453125 L 16.8125 -26.453125 C 19.082031 -26.453125 20.21875 -25.316406 20.21875 -23.046875 L 20.21875 -1.140625 L 22.484375 -0.5625 L 22.484375 0 L 19.078125 0 C 17.566406 0 16.394531 -0.460938 15.5625 -1.390625 C 15.207031 -1.773438 14.929688 -2.253906 14.734375 -2.828125 C 14.410156 -2.203125 13.992188 -1.640625 13.484375 -1.140625 C 12.347656 -0.00390625 10.9375 0.5625 9.25 0.5625 Z M 10.765625 -0.75 C 11.703125 -0.75 12.546875 -1.253906 13.296875 -2.265625 C 13.578125 -2.640625 13.867188 -3.144531 14.171875 -3.78125 L 14.171875 -16.8125 C 13.890625 -17.09375 13.597656 -17.34375 13.296875 -17.5625 C 12.617188 -18.070312 11.960938 -18.328125 11.328125 -18.328125 C 10.242188 -18.328125 9.40625 -17.695312 8.8125 -16.4375 C 8.226562 -15.175781 7.9375 -12.84375 7.9375 -9.4375 C 7.9375 -6.195312 8.207031 -3.9375 8.75 -2.65625 C 9.289062 -1.382812 9.960938 -0.75 10.765625 -0.75 Z M 10.765625 -0.75 "/></g></g></g><g fill="rgb(90.979004%, 94.509888%, 94.898987%)" fill-opacity="1"><g transform="translate(119.386587, 38.525617)"><g><path d="M 1.140625 6.984375 L 3.40625 6.421875 L 3.40625 -17.75 L 1.140625 -18.328125 L 1.140625 -18.890625 L 4.53125 -18.890625 C 6.019531 -18.890625 7.191406 -18.410156 8.046875 -17.453125 C 8.367188 -17.078125 8.644531 -16.613281 8.875 -16.0625 C 9.207031 -16.71875 9.625 -17.28125 10.125 -17.75 C 11.257812 -18.882812 12.671875 -19.453125 14.359375 -19.453125 C 15.847656 -19.453125 17.171875 -19.066406 18.328125 -18.296875 C 19.484375 -17.535156 20.398438 -16.40625 21.078125 -14.90625 C 21.765625 -13.40625 22.109375 -11.582031 22.109375 -9.4375 C 22.109375 -6.21875 21.359375 -3.742188 19.859375 -2.015625 C 18.359375 -0.296875 16.335938 0.5625 13.796875 0.5625 C 12.585938 0.5625 11.523438 0.3125 10.609375 -0.1875 C 10.234375 -0.363281 9.84375 -0.613281 9.4375 -0.9375 L 9.4375 6.421875 L 11.71875 6.984375 L 11.71875 7.5625 L 1.140625 7.5625 Z M 12.28125 -0.5625 C 13.363281 -0.5625 14.195312 -1.191406 14.78125 -2.453125 C 15.375 -3.710938 15.671875 -6.039062 15.671875 -9.4375 C 15.671875 -12.6875 15.398438 -14.945312 14.859375 -16.21875 C 14.316406 -17.5 13.644531 -18.140625 12.84375 -18.140625 C 11.882812 -18.140625 11.03125 -17.632812 10.28125 -16.625 C 9.945312 -16.195312 9.664062 -15.691406 9.4375 -15.109375 L 9.4375 -2.078125 C 9.789062 -1.722656 10.070312 -1.472656 10.28125 -1.328125 C 10.957031 -0.816406 11.625 -0.5625 12.28125 -0.5625 Z M 12.28125 -0.5625 "/></g></g></g><g fill="rgb(90.979004%, 94.509888%, 94.898987%)" fill-opacity="1"><g transform="translate(145.708356, 38.525617)"><g/></g></g><g fill="rgb(90.979004%, 94.509888%, 94.898987%)" fill-opacity="1"><g transform="translate(159.00482, 38.525617)"><g/></g></g><g fill="rgb(90.979004%, 94.509888%, 94.898987%)" fill-opacity="1"><g transform="translate(172.295036, 38.525617)"><g><path d="M 1.515625 -0.5625 L 3.78125 -1.140625 L 3.78125 -17.75 L 1.515625 -18.328125 L 1.515625 -18.890625 L 6.421875 -18.890625 C 8.691406 -18.890625 9.828125 -17.753906 9.828125 -15.484375 L 9.828125 -1.140625 L 12.09375 -0.5625 L 12.09375 0 L 1.515625 0 Z M 6.421875 -21.15625 C 5.671875 -21.15625 5.039062 -21.40625 4.53125 -21.90625 C 4.03125 -22.414062 3.78125 -23.046875 3.78125 -23.796875 C 3.78125 -24.554688 4.03125 -25.1875 4.53125 -25.6875 C 5.039062 -26.195312 5.671875 -26.453125 6.421875 -26.453125 C 7.179688 -26.453125 7.8125 -26.195312 8.3125 -25.6875 C 8.820312 -25.1875 9.078125 -24.554688 9.078125 -23.796875 C 9.078125 -23.046875 8.820312 -22.414062 8.3125 -21.90625 C 7.8125 -21.40625 7.179688 -21.15625 6.421875 -21.15625 Z M 6.421875 -21.15625 "/></g></g></g><g fill="rgb(90.979004%, 94.509888%, 94.898987%)" fill-opacity="1"><g transform="translate(187.857801, 38.525617)"><g><path d="M 1.515625 -0.5625 L 3.78125 -1.140625 L 3.78125 -17.75 L 1.515625 -18.328125 L 1.515625 -18.890625 L 4.90625 -18.890625 C 6.394531 -18.890625 7.566406 -18.410156 8.421875 -17.453125 C 8.753906 -17.078125 9.03125 -16.613281 9.25 -16.0625 C 9.601562 -16.71875 10.019531 -17.28125 10.5 -17.75 C 11.632812 -18.882812 13.046875 -19.453125 14.734375 -19.453125 C 16.140625 -19.453125 17.40625 -19.15625 18.53125 -18.5625 C 19.65625 -17.976562 20.53125 -17.207031 21.15625 -16.25 C 21.789062 -15.289062 22.109375 -14.28125 22.109375 -13.21875 L 22.109375 -1.140625 L 24.375 -0.5625 L 24.375 0 L 19.453125 0 C 17.191406 0 16.0625 -1.132812 16.0625 -3.40625 L 16.0625 -13.21875 C 16.0625 -14.8125 15.773438 -16.03125 15.203125 -16.875 C 14.640625 -17.71875 13.976562 -18.140625 13.21875 -18.140625 C 12.257812 -18.140625 11.40625 -17.632812 10.65625 -16.625 C 10.320312 -16.195312 10.046875 -15.691406 9.828125 -15.109375 L 9.828125 -1.140625 L 12.09375 -0.5625 L 12.09375 0 L 1.515625 0 Z M 1.515625 -0.5625 "/></g></g></g><g fill="rgb(90.979004%, 94.509888%, 94.898987%)" fill-opacity="1"><g transform="translate(215.69641, 38.525617)"><g><path d="M 11.328125 0.5625 C 9.671875 0.5625 8.226562 0.257812 7 -0.34375 C 5.78125 -0.945312 4.84375 -1.773438 4.1875 -2.828125 C 3.539062 -3.890625 3.21875 -5.085938 3.21875 -6.421875 L 3.21875 -17.953125 L 0.5625 -17.953125 L 0.5625 -18.890625 L 3.21875 -18.890625 L 3.21875 -20.78125 C 3.21875 -23.050781 4.347656 -24.1875 6.609375 -24.1875 L 9.25 -24.1875 L 9.25 -18.890625 L 14.546875 -18.890625 L 14.546875 -17.953125 L 9.25 -17.953125 L 9.25 -6.421875 C 9.25 -4.109375 9.488281 -2.519531 9.96875 -1.65625 C 10.445312 -0.800781 11.15625 -0.375 12.09375 -0.375 C 13 -0.375 13.789062 -0.8125 14.46875 -1.6875 C 15.144531 -2.570312 15.484375 -3.773438 15.484375 -5.296875 L 16.4375 -5.296875 C 16.4375 -3.429688 15.96875 -1.988281 15.03125 -0.96875 C 14.101562 0.0507812 12.867188 0.5625 11.328125 0.5625 Z M 11.328125 0.5625 "/></g></g></g><path fill="rgb(90.979004%, 94.509888%, 94.898987%)" d="M 159.40625 23.933594 C 161.207031 25.015625 160.714844 27.296875 158.816406 27.890625 C 157.921875 28.171875 156.355469 28.382812 155.492188 27.96875 C 154.109375 27.300781 154.457031 24.96875 155.085938 23.929688 C 155.914062 22.5625 158.046875 22.773438 159.152344 23.742188 C 159.738281 24.261719 160.605469 23.398438 160.015625 22.878906 C 158.496094 21.546875 155.667969 21.152344 154.320312 22.898438 C 153.191406 24.359375 152.75 27.441406 154.375 28.753906 C 155.875 29.96875 159.253906 29.480469 160.640625 28.273438 C 162.445312 26.703125 161.972656 24.050781 160.023438 22.878906 C 159.347656 22.472656 158.730469 23.527344 159.40625 23.933594 Z M 159.40625 23.933594 " fill-opacity="1" fill-rule="nonzero"/><g clip-path="url(#id2)"><path fill="rgb(90.979004%, 94.509888%, 94.898987%)" d="M 166.210938 23.8125 C 166.53125 27.003906 164.46875 30.046875 163.011719 32.769531 C 161.347656 35.882812 159.40625 38.765625 156.925781 41.289062 C 157.242188 41.328125 157.5625 41.371094 157.882812 41.410156 C 156.277344 38.625 154.402344 36.019531 152.546875 33.394531 C 150.390625 30.347656 148.03125 27.375 148.746094 23.386719 C 149.425781 19.597656 153.089844 16.273438 156.996094 16.152344 C 160.652344 16.039062 166.734375 19.710938 166.339844 23.976562 C 166.265625 24.757812 167.488281 24.753906 167.5625 23.976562 C 167.738281 22.078125 167.03125 20.585938 165.722656 19.230469 C 164.4375 17.898438 162.609375 16.167969 160.878906 15.425781 C 157.292969 13.886719 153.0625 15.316406 150.457031 17.921875 C 142.414062 25.960938 152.71875 34.898438 156.828125 42.027344 C 157.023438 42.367188 157.511719 42.429688 157.789062 42.152344 C 160.5625 39.332031 162.660156 36.09375 164.484375 32.59375 C 165.925781 29.828125 167.757812 27.046875 167.429688 23.8125 C 167.351562 23.039062 166.128906 23.03125 166.210938 23.8125 Z M 166.210938 23.8125 " fill-opacity="1" fill-rule="nonzero"/></g></svg>