<svg xmlns="http://www.w3.org/2000/svg" xmlns:xlink="http://www.w3.org/1999/xlink" width="380" zoomAndPan="magnify" viewBox="0 0 285 52.499999" height="70" preserveAspectRatio="xMidYMid meet" version="1.0"><defs><g><g id="id1"/></g><clipPath id="id2"><path d="M 147 15.191406 L 166 15.191406 L 166 41 L 147 41 Z M 147 15.191406 " clip-rule="nonzero"/></clipPath></defs><g fill="rgb(6.669617%, 16.468811%, 27.449036%)" fill-opacity="1"><g transform="translate(59.545385, 37.352086)"><g><path d="M 1.390625 -0.515625 L 3.46875 -1.046875 L 3.46875 -23.265625 L 1.390625 -23.796875 L 1.390625 -24.3125 L 5.90625 -24.3125 C 7.988281 -24.3125 9.03125 -23.269531 9.03125 -21.1875 L 9.03125 -9.03125 L 15.453125 -15.796875 L 12.859375 -16.84375 L 12.859375 -17.375 L 19.453125 -17.375 L 19.453125 -16.84375 L 16.671875 -15.796875 L 12.671875 -11.640625 L 19.453125 -1.046875 L 21.1875 -0.515625 L 21.1875 0 L 16.671875 0 C 15.554688 0 14.648438 -0.238281 13.953125 -0.71875 C 13.265625 -1.207031 12.609375 -1.953125 11.984375 -2.953125 L 9.03125 -7.640625 L 9.03125 -1.046875 L 11.109375 -0.515625 L 11.109375 0 L 1.390625 0 Z M 1.390625 -0.515625 "/></g></g></g><g fill="rgb(6.669617%, 16.468811%, 27.449036%)" fill-opacity="1"><g transform="translate(82.890499, 37.352086)"><g><path d="M 1.390625 -0.515625 L 3.46875 -1.046875 L 3.46875 -16.328125 L 1.390625 -16.84375 L 1.390625 -17.375 L 5.90625 -17.375 C 7.988281 -17.375 9.03125 -16.328125 9.03125 -14.234375 L 9.03125 -1.046875 L 11.109375 -0.515625 L 11.109375 0 L 1.390625 0 Z M 5.90625 -19.453125 C 5.207031 -19.453125 4.625 -19.679688 4.15625 -20.140625 C 3.695312 -20.609375 3.46875 -21.1875 3.46875 -21.875 C 3.46875 -22.570312 3.695312 -23.148438 4.15625 -23.609375 C 4.625 -24.078125 5.207031 -24.3125 5.90625 -24.3125 C 6.601562 -24.3125 7.179688 -24.078125 7.640625 -23.609375 C 8.109375 -23.148438 8.34375 -22.570312 8.34375 -21.875 C 8.34375 -21.1875 8.109375 -20.609375 7.640625 -20.140625 C 7.179688 -19.679688 6.601562 -19.453125 5.90625 -19.453125 Z M 5.90625 -19.453125 "/></g></g></g><g fill="rgb(6.669617%, 16.468811%, 27.449036%)" fill-opacity="1"><g transform="translate(97.203336, 37.352086)"><g><path d="M 8.515625 0.515625 C 7.140625 0.515625 5.921875 0.164062 4.859375 -0.53125 C 3.796875 -1.238281 2.953125 -2.28125 2.328125 -3.65625 C 1.703125 -5.039062 1.390625 -6.71875 1.390625 -8.6875 C 1.390625 -11.644531 2.078125 -13.914062 3.453125 -15.5 C 4.828125 -17.09375 6.6875 -17.890625 9.03125 -17.890625 C 10.144531 -17.890625 11.117188 -17.65625 11.953125 -17.1875 C 12.296875 -17.03125 12.65625 -16.800781 13.03125 -16.5 L 13.03125 -23.265625 L 10.9375 -23.796875 L 10.9375 -24.3125 L 15.453125 -24.3125 C 17.535156 -24.3125 18.578125 -23.269531 18.578125 -21.1875 L 18.578125 -1.046875 L 20.671875 -0.515625 L 20.671875 0 L 17.546875 0 C 16.148438 0 15.070312 -0.425781 14.3125 -1.28125 C 13.988281 -1.632812 13.734375 -2.078125 13.546875 -2.609375 C 13.242188 -2.023438 12.863281 -1.503906 12.40625 -1.046875 C 11.363281 -0.00390625 10.066406 0.515625 8.515625 0.515625 Z M 9.90625 -0.6875 C 10.757812 -0.6875 11.53125 -1.148438 12.21875 -2.078125 C 12.476562 -2.429688 12.75 -2.894531 13.03125 -3.46875 L 13.03125 -15.453125 C 12.769531 -15.710938 12.5 -15.945312 12.21875 -16.15625 C 11.59375 -16.613281 10.992188 -16.84375 10.421875 -16.84375 C 9.421875 -16.84375 8.648438 -16.265625 8.109375 -15.109375 C 7.566406 -13.953125 7.296875 -11.8125 7.296875 -8.6875 C 7.296875 -5.695312 7.539062 -3.613281 8.03125 -2.4375 C 8.53125 -1.269531 9.15625 -0.6875 9.90625 -0.6875 Z M 9.90625 -0.6875 "/></g></g></g><g fill="rgb(6.669617%, 16.468811%, 27.449036%)" fill-opacity="1"><g transform="translate(121.243242, 37.352086)"><g><path d="M 1.046875 6.421875 L 3.125 5.90625 L 3.125 -16.328125 L 1.046875 -16.84375 L 1.046875 -17.375 L 4.171875 -17.375 C 5.535156 -17.375 6.613281 -16.929688 7.40625 -16.046875 C 7.695312 -15.703125 7.945312 -15.273438 8.15625 -14.765625 C 8.457031 -15.367188 8.84375 -15.890625 9.3125 -16.328125 C 10.351562 -17.367188 11.648438 -17.890625 13.203125 -17.890625 C 14.566406 -17.890625 15.78125 -17.535156 16.84375 -16.828125 C 17.90625 -16.117188 18.75 -15.078125 19.375 -13.703125 C 20 -12.328125 20.3125 -10.65625 20.3125 -8.6875 C 20.3125 -5.71875 19.625 -3.441406 18.25 -1.859375 C 16.875 -0.273438 15.015625 0.515625 12.671875 0.515625 C 11.566406 0.515625 10.597656 0.285156 9.765625 -0.171875 C 9.410156 -0.335938 9.050781 -0.570312 8.6875 -0.875 L 8.6875 5.90625 L 10.765625 6.421875 L 10.765625 6.953125 L 1.046875 6.953125 Z M 11.28125 -0.515625 C 12.28125 -0.515625 13.050781 -1.09375 13.59375 -2.25 C 14.144531 -3.414062 14.421875 -5.5625 14.421875 -8.6875 C 14.421875 -11.675781 14.171875 -13.753906 13.671875 -14.921875 C 13.171875 -16.085938 12.550781 -16.671875 11.8125 -16.671875 C 10.925781 -16.671875 10.140625 -16.207031 9.453125 -15.28125 C 9.148438 -14.882812 8.894531 -14.421875 8.6875 -13.890625 L 8.6875 -1.90625 C 9.007812 -1.582031 9.265625 -1.351562 9.453125 -1.21875 C 10.078125 -0.75 10.6875 -0.515625 11.28125 -0.515625 Z M 11.28125 -0.515625 "/></g></g></g><g fill="rgb(6.669617%, 16.468811%, 27.449036%)" fill-opacity="1"><g transform="translate(145.448889, 37.352086)"><g/></g></g><g fill="rgb(6.669617%, 16.468811%, 27.449036%)" fill-opacity="1"><g transform="translate(157.677356, 37.352086)"><g/></g></g><g fill="rgb(6.669617%, 16.468811%, 27.449036%)" fill-opacity="1"><g transform="translate(169.903881, 37.352086)"><g><path d="M 1.390625 -0.515625 L 3.46875 -1.046875 L 3.46875 -16.328125 L 1.390625 -16.84375 L 1.390625 -17.375 L 5.90625 -17.375 C 7.988281 -17.375 9.03125 -16.328125 9.03125 -14.234375 L 9.03125 -1.046875 L 11.109375 -0.515625 L 11.109375 0 L 1.390625 0 Z M 5.90625 -19.453125 C 5.207031 -19.453125 4.625 -19.679688 4.15625 -20.140625 C 3.695312 -20.609375 3.46875 -21.1875 3.46875 -21.875 C 3.46875 -22.570312 3.695312 -23.148438 4.15625 -23.609375 C 4.625 -24.078125 5.207031 -24.3125 5.90625 -24.3125 C 6.601562 -24.3125 7.179688 -24.078125 7.640625 -23.609375 C 8.109375 -23.148438 8.34375 -22.570312 8.34375 -21.875 C 8.34375 -21.1875 8.109375 -20.609375 7.640625 -20.140625 C 7.179688 -19.679688 6.601562 -19.453125 5.90625 -19.453125 Z M 5.90625 -19.453125 "/></g></g></g><g fill="rgb(6.669617%, 16.468811%, 27.449036%)" fill-opacity="1"><g transform="translate(184.216718, 37.352086)"><g><path d="M 1.390625 -0.515625 L 3.46875 -1.046875 L 3.46875 -16.328125 L 1.390625 -16.84375 L 1.390625 -17.375 L 4.515625 -17.375 C 5.878906 -17.375 6.957031 -16.929688 7.75 -16.046875 C 8.050781 -15.703125 8.304688 -15.273438 8.515625 -14.765625 C 8.835938 -15.367188 9.21875 -15.890625 9.65625 -16.328125 C 10.695312 -17.367188 11.992188 -17.890625 13.546875 -17.890625 C 14.835938 -17.890625 16 -17.613281 17.03125 -17.0625 C 18.0625 -16.519531 18.863281 -15.804688 19.4375 -14.921875 C 20.019531 -14.046875 20.3125 -13.125 20.3125 -12.15625 L 20.3125 -1.046875 L 22.40625 -0.515625 L 22.40625 0 L 17.890625 0 C 15.804688 0 14.765625 -1.039062 14.765625 -3.125 L 14.765625 -12.15625 C 14.765625 -13.613281 14.503906 -14.726562 13.984375 -15.5 C 13.460938 -16.28125 12.851562 -16.671875 12.15625 -16.671875 C 11.28125 -16.671875 10.492188 -16.207031 9.796875 -15.28125 C 9.492188 -14.882812 9.238281 -14.421875 9.03125 -13.890625 L 9.03125 -1.046875 L 11.109375 -0.515625 L 11.109375 0 L 1.390625 0 Z M 1.390625 -0.515625 "/></g></g></g><g fill="rgb(6.669617%, 16.468811%, 27.449036%)" fill-opacity="1"><g transform="translate(209.819899, 37.352086)"><g><path d="M 10.421875 0.515625 C 8.890625 0.515625 7.5625 0.238281 6.4375 -0.3125 C 5.320312 -0.863281 4.460938 -1.625 3.859375 -2.59375 C 3.253906 -3.570312 2.953125 -4.675781 2.953125 -5.90625 L 2.953125 -16.5 L 0.515625 -16.5 L 0.515625 -17.375 L 2.953125 -17.375 L 2.953125 -19.109375 C 2.953125 -21.191406 3.992188 -22.234375 6.078125 -22.234375 L 8.515625 -22.234375 L 8.515625 -17.375 L 13.375 -17.375 L 13.375 -16.5 L 8.515625 -16.5 L 8.515625 -5.90625 C 8.515625 -3.769531 8.734375 -2.304688 9.171875 -1.515625 C 9.609375 -0.734375 10.253906 -0.34375 11.109375 -0.34375 C 11.941406 -0.34375 12.671875 -0.75 13.296875 -1.5625 C 13.921875 -2.375 14.234375 -3.472656 14.234375 -4.859375 L 15.109375 -4.859375 C 15.109375 -3.148438 14.679688 -1.828125 13.828125 -0.890625 C 12.972656 0.046875 11.835938 0.515625 10.421875 0.515625 Z M 10.421875 0.515625 "/></g></g></g><path fill="rgb(6.669617%, 16.468811%, 27.449036%)" d="M 158.070312 23.929688 C 159.730469 24.929688 159.273438 27.03125 157.527344 27.578125 C 156.703125 27.835938 155.257812 28.03125 154.464844 27.648438 C 153.191406 27.035156 153.511719 24.886719 154.09375 23.929688 C 154.855469 22.671875 156.820312 22.863281 157.835938 23.757812 C 158.375 24.234375 159.175781 23.441406 158.628906 22.960938 C 157.230469 21.734375 154.628906 21.371094 153.386719 22.976562 C 152.34375 24.324219 151.9375 27.164062 153.4375 28.375 C 154.816406 29.492188 157.929688 29.039062 159.207031 27.929688 C 160.867188 26.484375 160.433594 24.039062 158.636719 22.960938 C 158.015625 22.585938 157.449219 23.558594 158.070312 23.929688 Z M 158.070312 23.929688 " fill-opacity="1" fill-rule="nonzero"/><g clip-path="url(#id2)"><path fill="rgb(6.669617%, 16.468811%, 27.449036%)" d="M 164.335938 23.820312 C 164.632812 26.761719 162.730469 29.5625 161.390625 32.070312 C 159.859375 34.9375 158.070312 37.59375 155.785156 39.917969 C 156.078125 39.953125 156.371094 39.992188 156.667969 40.03125 C 155.1875 37.464844 153.460938 35.0625 151.753906 32.648438 C 149.769531 29.839844 147.59375 27.101562 148.253906 23.429688 C 148.878906 19.941406 152.253906 16.875 155.847656 16.765625 C 159.21875 16.664062 164.820312 20.042969 164.457031 23.972656 C 164.390625 24.691406 165.515625 24.6875 165.582031 23.972656 C 165.742188 22.222656 165.09375 20.851562 163.886719 19.601562 C 162.703125 18.375 161.019531 16.78125 159.425781 16.097656 C 156.121094 14.679688 152.230469 15.996094 149.828125 18.394531 C 142.421875 25.800781 151.910156 34.03125 155.695312 40.597656 C 155.875 40.910156 156.328125 40.96875 156.578125 40.710938 C 159.132812 38.117188 161.066406 35.132812 162.746094 31.910156 C 164.074219 29.363281 165.761719 26.800781 165.460938 23.820312 C 165.390625 23.109375 164.261719 23.101562 164.335938 23.820312 Z M 164.335938 23.820312 " fill-opacity="1" fill-rule="nonzero"/></g></svg>