<svg xmlns="http://www.w3.org/2000/svg" xmlns:xlink="http://www.w3.org/1999/xlink" width="300" zoomAndPan="magnify" viewBox="0 0 224.87999 52.499999" height="70" preserveAspectRatio="xMidYMid meet" version="1.0"><defs><g><g id="id1"/></g></defs><g fill="rgb(6.669617%, 16.468811%, 27.449036%)" fill-opacity="1"><g transform="translate(2.667976, 41.598428)"><g><path d="M 1.84375 -0.6875 L 4.59375 -1.375 L 4.59375 -30.796875 L 1.84375 -31.484375 L 1.84375 -32.171875 L 7.8125 -32.171875 C 10.570312 -32.171875 11.953125 -30.796875 11.953125 -28.046875 L 11.953125 -11.953125 L 20.453125 -20.921875 L 17.015625 -22.296875 L 17.015625 -22.984375 L 25.75 -22.984375 L 25.75 -22.296875 L 22.0625 -20.921875 L 16.78125 -15.40625 L 25.75 -1.375 L 28.046875 -0.6875 L 28.046875 0 L 22.0625 0 C 20.59375 0 19.394531 -0.320312 18.46875 -0.96875 C 17.550781 -1.613281 16.679688 -2.59375 15.859375 -3.90625 L 11.953125 -10.109375 L 11.953125 -1.375 L 14.703125 -0.6875 L 14.703125 0 L 1.84375 0 Z M 1.84375 -0.6875 "/></g></g></g><g fill="rgb(6.669617%, 16.468811%, 27.449036%)" fill-opacity="1"><g transform="translate(33.559191, 41.598428)"><g><path d="M 1.84375 -0.6875 L 4.59375 -1.375 L 4.59375 -21.609375 L 1.84375 -22.296875 L 1.84375 -22.984375 L 7.8125 -22.984375 C 10.570312 -22.984375 11.953125 -21.601562 11.953125 -18.84375 L 11.953125 -1.375 L 14.703125 -0.6875 L 14.703125 0 L 1.84375 0 Z M 7.8125 -25.75 C 6.894531 -25.75 6.128906 -26.050781 5.515625 -26.65625 C 4.898438 -27.269531 4.59375 -28.035156 4.59375 -28.953125 C 4.59375 -29.878906 4.898438 -30.644531 5.515625 -31.25 C 6.128906 -31.863281 6.894531 -32.171875 7.8125 -32.171875 C 8.726562 -32.171875 9.492188 -31.863281 10.109375 -31.25 C 10.722656 -30.644531 11.03125 -29.878906 11.03125 -28.953125 C 11.03125 -28.035156 10.722656 -27.269531 10.109375 -26.65625 C 9.492188 -26.050781 8.726562 -25.75 7.8125 -25.75 Z M 7.8125 -25.75 "/></g></g></g><g fill="rgb(6.669617%, 16.468811%, 27.449036%)" fill-opacity="1"><g transform="translate(52.49859, 41.598428)"><g><path d="M 11.265625 0.6875 C 9.453125 0.6875 7.84375 0.222656 6.4375 -0.703125 C 5.03125 -1.640625 3.910156 -3.019531 3.078125 -4.84375 C 2.253906 -6.664062 1.84375 -8.882812 1.84375 -11.5 C 1.84375 -15.414062 2.753906 -18.421875 4.578125 -20.515625 C 6.398438 -22.617188 8.859375 -23.671875 11.953125 -23.671875 C 13.421875 -23.671875 14.707031 -23.363281 15.8125 -22.75 C 16.269531 -22.539062 16.742188 -22.234375 17.234375 -21.828125 L 17.234375 -30.796875 L 14.484375 -31.484375 L 14.484375 -32.171875 L 20.453125 -32.171875 C 23.210938 -32.171875 24.59375 -30.796875 24.59375 -28.046875 L 24.59375 -1.375 L 27.34375 -0.6875 L 27.34375 0 L 23.21875 0 C 21.375 0 19.945312 -0.566406 18.9375 -1.703125 C 18.507812 -2.160156 18.171875 -2.742188 17.921875 -3.453125 C 17.523438 -2.679688 17.019531 -1.988281 16.40625 -1.375 C 15.03125 0 13.316406 0.6875 11.265625 0.6875 Z M 13.09375 -0.921875 C 14.226562 -0.921875 15.257812 -1.535156 16.1875 -2.765625 C 16.519531 -3.222656 16.867188 -3.832031 17.234375 -4.59375 L 17.234375 -20.453125 C 16.898438 -20.796875 16.550781 -21.101562 16.1875 -21.375 C 15.351562 -21.988281 14.554688 -22.296875 13.796875 -22.296875 C 12.472656 -22.296875 11.453125 -21.53125 10.734375 -20 C 10.015625 -18.46875 9.65625 -15.632812 9.65625 -11.5 C 9.65625 -7.539062 9.984375 -4.785156 10.640625 -3.234375 C 11.296875 -1.691406 12.113281 -0.921875 13.09375 -0.921875 Z M 13.09375 -0.921875 "/></g></g></g><g fill="rgb(6.669617%, 16.468811%, 27.449036%)" fill-opacity="1"><g transform="translate(84.309176, 41.598428)"><g><path d="M 1.375 8.5 L 4.140625 7.8125 L 4.140625 -21.609375 L 1.375 -22.296875 L 1.375 -22.984375 L 5.515625 -22.984375 C 7.328125 -22.984375 8.753906 -22.398438 9.796875 -21.234375 C 10.191406 -20.773438 10.523438 -20.207031 10.796875 -19.53125 C 11.203125 -20.332031 11.707031 -21.023438 12.3125 -21.609375 C 13.695312 -22.984375 15.414062 -23.671875 17.46875 -23.671875 C 19.28125 -23.671875 20.890625 -23.203125 22.296875 -22.265625 C 23.703125 -21.335938 24.816406 -19.960938 25.640625 -18.140625 C 26.472656 -16.316406 26.890625 -14.101562 26.890625 -11.5 C 26.890625 -7.570312 25.976562 -4.554688 24.15625 -2.453125 C 22.332031 -0.359375 19.875 0.6875 16.78125 0.6875 C 15.3125 0.6875 14.023438 0.378906 12.921875 -0.234375 C 12.460938 -0.441406 11.988281 -0.75 11.5 -1.15625 L 11.5 7.8125 L 14.25 8.5 L 14.25 9.1875 L 1.375 9.1875 Z M 14.9375 -0.6875 C 16.257812 -0.6875 17.28125 -1.453125 18 -2.984375 C 18.71875 -4.515625 19.078125 -7.351562 19.078125 -11.5 C 19.078125 -15.445312 18.742188 -18.191406 18.078125 -19.734375 C 17.421875 -21.285156 16.601562 -22.0625 15.625 -22.0625 C 14.457031 -22.0625 13.414062 -21.445312 12.5 -20.21875 C 12.101562 -19.695312 11.769531 -19.085938 11.5 -18.390625 L 11.5 -2.53125 C 11.925781 -2.101562 12.257812 -1.796875 12.5 -1.609375 C 13.332031 -0.992188 14.144531 -0.6875 14.9375 -0.6875 Z M 14.9375 -0.6875 "/></g></g></g><g fill="rgb(6.669617%, 16.468811%, 27.449036%)" fill-opacity="1"><g transform="translate(116.347029, 41.598428)"><g/></g></g><g fill="rgb(6.669617%, 16.468811%, 27.449036%)" fill-opacity="1"><g transform="translate(132.528314, 41.598428)"><g/></g></g><g fill="rgb(6.669617%, 16.468811%, 27.449036%)" fill-opacity="1"><g transform="translate(148.699072, 41.598428)"><g><path d="M 1.84375 -0.6875 L 4.59375 -1.375 L 4.59375 -21.609375 L 1.84375 -22.296875 L 1.84375 -22.984375 L 7.8125 -22.984375 C 10.570312 -22.984375 11.953125 -21.601562 11.953125 -18.84375 L 11.953125 -1.375 L 14.703125 -0.6875 L 14.703125 0 L 1.84375 0 Z M 7.8125 -25.75 C 6.894531 -25.75 6.128906 -26.050781 5.515625 -26.65625 C 4.898438 -27.269531 4.59375 -28.035156 4.59375 -28.953125 C 4.59375 -29.878906 4.898438 -30.644531 5.515625 -31.25 C 6.128906 -31.863281 6.894531 -32.171875 7.8125 -32.171875 C 8.726562 -32.171875 9.492188 -31.863281 10.109375 -31.25 C 10.722656 -30.644531 11.03125 -29.878906 11.03125 -28.953125 C 11.03125 -28.035156 10.722656 -27.269531 10.109375 -26.65625 C 9.492188 -26.050781 8.726562 -25.75 7.8125 -25.75 Z M 7.8125 -25.75 "/></g></g></g><g fill="rgb(6.669617%, 16.468811%, 27.449036%)" fill-opacity="1"><g transform="translate(167.638471, 41.598428)"><g><path d="M 1.84375 -0.6875 L 4.59375 -1.375 L 4.59375 -21.609375 L 1.84375 -22.296875 L 1.84375 -22.984375 L 5.96875 -22.984375 C 7.78125 -22.984375 9.207031 -22.398438 10.25 -21.234375 C 10.644531 -20.773438 10.984375 -20.207031 11.265625 -19.53125 C 11.691406 -20.332031 12.195312 -21.023438 12.78125 -21.609375 C 14.15625 -22.984375 15.867188 -23.671875 17.921875 -23.671875 C 19.640625 -23.671875 21.179688 -23.3125 22.546875 -22.59375 C 23.910156 -21.875 24.972656 -20.929688 25.734375 -19.765625 C 26.503906 -18.597656 26.890625 -17.375 26.890625 -16.09375 L 26.890625 -1.375 L 29.65625 -0.6875 L 29.65625 0 L 23.671875 0 C 20.910156 0 19.53125 -1.378906 19.53125 -4.140625 L 19.53125 -16.09375 C 19.53125 -18.019531 19.1875 -19.492188 18.5 -20.515625 C 17.8125 -21.546875 17.007812 -22.0625 16.09375 -22.0625 C 14.925781 -22.0625 13.882812 -21.445312 12.96875 -20.21875 C 12.5625 -19.695312 12.222656 -19.085938 11.953125 -18.390625 L 11.953125 -1.375 L 14.703125 -0.6875 L 14.703125 0 L 1.84375 0 Z M 1.84375 -0.6875 "/></g></g></g><g fill="rgb(6.669617%, 16.468811%, 27.449036%)" fill-opacity="1"><g transform="translate(201.51764, 41.598428)"><g><path d="M 13.796875 0.6875 C 11.765625 0.6875 10.003906 0.320312 8.515625 -0.40625 C 7.035156 -1.144531 5.894531 -2.15625 5.09375 -3.4375 C 4.300781 -4.726562 3.90625 -6.1875 3.90625 -7.8125 L 3.90625 -21.828125 L 0.6875 -21.828125 L 0.6875 -22.984375 L 3.90625 -22.984375 L 3.90625 -25.28125 C 3.90625 -28.039062 5.285156 -29.421875 8.046875 -29.421875 L 11.265625 -29.421875 L 11.265625 -22.984375 L 17.703125 -22.984375 L 17.703125 -21.828125 L 11.265625 -21.828125 L 11.265625 -7.8125 C 11.265625 -4.988281 11.554688 -3.054688 12.140625 -2.015625 C 12.722656 -0.972656 13.578125 -0.453125 14.703125 -0.453125 C 15.804688 -0.453125 16.769531 -0.988281 17.59375 -2.0625 C 18.425781 -3.132812 18.84375 -4.59375 18.84375 -6.4375 L 20 -6.4375 C 20 -4.164062 19.429688 -2.410156 18.296875 -1.171875 C 17.160156 0.0664062 15.660156 0.6875 13.796875 0.6875 Z M 13.796875 0.6875 "/></g></g></g><path fill="rgb(6.669617%, 16.468811%, 27.449036%)" d="M 132.910156 23.421875 C 135.09375 24.734375 134.492188 27.496094 132.199219 28.214844 C 131.117188 28.554688 129.21875 28.8125 128.175781 28.308594 C 126.496094 27.5 126.921875 24.679688 127.683594 23.421875 C 128.683594 21.765625 131.265625 22.023438 132.601562 23.195312 C 133.3125 23.820312 134.363281 22.78125 133.648438 22.152344 C 131.808594 20.535156 128.386719 20.058594 126.753906 22.171875 C 125.386719 23.941406 124.851562 27.671875 126.820312 29.261719 C 128.636719 30.730469 132.726562 30.136719 134.40625 28.679688 C 136.585938 26.78125 136.015625 23.566406 133.65625 22.148438 C 132.839844 21.65625 132.09375 22.933594 132.910156 23.421875 Z M 132.910156 23.421875 " fill-opacity="1" fill-rule="nonzero"/><path fill="rgb(6.669617%, 16.468811%, 27.449036%)" d="M 141.148438 23.277344 C 141.539062 27.144531 139.039062 30.824219 137.273438 34.125 C 135.261719 37.890625 132.910156 41.378906 129.90625 44.433594 C 130.292969 44.484375 130.679688 44.53125 131.066406 44.582031 C 129.125 41.207031 126.855469 38.054688 124.609375 34.878906 C 122 31.191406 119.144531 27.589844 120.007812 22.765625 C 120.828125 18.179688 125.265625 14.152344 129.992188 14.007812 C 134.421875 13.871094 141.78125 18.3125 141.304688 23.476562 C 141.21875 24.421875 142.695312 24.417969 142.78125 23.476562 C 142.996094 21.179688 142.140625 19.375 140.554688 17.730469 C 139 16.121094 136.789062 14.027344 134.695312 13.125 C 130.351562 11.261719 125.234375 12.992188 122.078125 16.148438 C 112.34375 25.878906 124.816406 36.695312 129.789062 45.328125 C 130.027344 45.738281 130.617188 45.816406 130.953125 45.480469 C 134.308594 42.066406 136.851562 38.144531 139.058594 33.910156 C 140.804688 30.5625 143.019531 27.195312 142.625 23.277344 C 142.53125 22.339844 141.050781 22.332031 141.148438 23.277344 Z M 141.148438 23.277344 " fill-opacity="1" fill-rule="nonzero"/></svg>